<svg width="375" height="579" viewBox="0 0 375 579" fill="none" xmlns="http://www.w3.org/2000/svg">
<path opacity="0.05" d="M437.141 145.464C410.86 99.929 352.98 90.399 300.531 94.282C272.838 37.042 232.919 0.299011 187.693 0.299011C142.467 0.299011 102.549 37.042 74.855 94.282C21.989 90.369 -35.612 100.099 -61.755 145.464C-88.008 190.864 -67.435 246.109 -37.897 289.499C-67.423 332.871 -88.016 388.124 -61.755 433.534C-35.496 479.065 22.174 488.614 74.855 484.716C102.549 541.957 142.472 578.699 187.693 578.699C232.914 578.699 272.838 541.956 300.531 484.716C352.964 488.598 410.792 479.222 437.141 433.534C463.395 388.134 442.821 332.889 413.283 289.499C442.809 246.128 463.401 190.874 437.141 145.464ZM293.154 175.639C262.32 155.224 252.284 151.139 233.254 141.666C248.468 137.157 263.965 133.664 279.642 131.21C285.064 145.725 289.576 160.563 293.154 175.639ZM187.693 34.19C216.999 34.19 244.151 59.668 265.114 99.022C239.993 103.629 213.992 111.469 187.693 121.59C161.393 111.469 135.393 103.629 110.272 99.022C131.235 59.668 158.387 34.19 187.693 34.19ZM95.739 131.21C111.416 133.664 126.913 137.157 142.127 141.666C121.281 152.047 112.505 155.595 82.227 175.639C85.8057 160.564 90.3185 145.725 95.739 131.21ZM-32.428 416.59C-46.205 392.752 -40.028 357.09 -15.971 318.048C1.47693 338.343 20.7585 356.986 41.629 373.741C45.6385 400.238 52.0865 426.307 60.891 451.618C15.252 452.832 -18.673 440.382 -32.425 416.59H-32.428ZM36.272 323.336C25.1425 312.738 14.7057 301.436 5.02602 289.499C14.7063 277.563 25.1431 266.261 36.272 255.663C34.83 278.198 34.83 300.801 36.272 323.336ZM41.622 205.259C20.7515 222.014 1.46992 240.657 -15.978 260.952C-40.028 221.912 -46.208 186.247 -32.428 162.409C-15.434 133.024 26.972 126.362 60.913 127.309C52.0919 152.642 45.634 178.736 41.622 205.259ZM82.231 403.359C113.065 423.774 123.101 427.859 142.131 437.332C126.917 441.84 111.42 445.333 95.743 447.788C90.3225 433.273 85.8098 418.435 82.231 403.36V403.359ZM187.693 544.809C158.387 544.809 131.235 519.331 110.272 479.977C135.392 475.37 161.394 467.53 187.693 457.409C213.993 467.53 239.993 475.37 265.114 479.977C244.152 519.331 217 544.809 187.693 544.809ZM279.648 447.789C263.971 445.334 248.474 441.841 233.26 437.333C254.106 426.952 262.882 423.404 293.16 403.36C289.581 418.435 285.069 433.274 279.648 447.789ZM302 355.013C263.33 384.577 232.489 402.392 187.694 421.087C142.95 402.413 112.103 384.612 73.388 355.013C67.6447 311.525 67.6447 267.471 73.388 223.983C112.122 194.37 142.988 176.569 187.694 157.911C232.33 176.541 263.209 194.328 302 223.983C307.744 267.471 307.744 311.526 302 355.014V355.013ZM407.817 162.413C421.594 186.251 415.417 221.913 391.36 260.955C373.912 240.66 354.631 222.017 333.76 205.262C329.749 178.738 323.293 152.641 314.472 127.307C348.398 126.362 390.818 133.015 407.817 162.409V162.413ZM339.117 255.667C350.245 266.263 360.681 277.564 370.36 289.499C360.681 301.435 350.245 312.737 339.117 323.335C340.56 300.801 340.56 278.197 339.117 255.663V255.667ZM407.817 416.594C394.065 440.382 360.01 452.82 314.501 451.622C323.305 426.311 329.754 400.242 333.763 373.745C354.634 356.99 373.915 338.347 391.363 318.052C415.416 357.091 421.597 392.752 407.82 416.594H407.817Z" fill="#D4F5FF"/>
</svg>
