<svg width="375" height="341" viewBox="0 0 375 341" fill="none" xmlns="http://www.w3.org/2000/svg">
<path fill-rule="evenodd" clip-rule="evenodd" d="M303.74 207.118C305.375 208.766 319.402 222.274 325.649 220.495C331.896 218.716 328.74 211.856 321.614 204.47C314.488 197.084 306.914 195.148 305.104 195.47C295.438 197.18 299.149 202.487 303.74 207.118Z" fill="#00663E"/>
<path fill-rule="evenodd" clip-rule="evenodd" d="M328.013 164.046C326.442 162.362 307.833 150.391 307.833 150.391C308.945 150.039 310.037 149.626 311.104 149.153C303.444 150.634 284.023 156.886 284.766 166.536C284.878 167.994 301.776 197.986 306.805 198.72C311.834 199.454 332.962 189.333 334.251 187.493C335.54 185.653 328.013 164.046 328.013 164.046Z" fill="#3D1B07"/>
<path fill-rule="evenodd" clip-rule="evenodd" d="M303.493 156.358C308.207 139.627 337.693 161.747 338.167 161.351C338.841 160.79 337.325 159.443 336.26 158.601C324.911 149.643 315.176 143.495 301.25 149.343C292.834 152.877 288.009 156.693 288.233 158.432C288.457 160.171 288.592 161.863 289.153 161.808C289.714 161.753 303.493 156.358 303.493 156.358Z" fill="#D27133"/>
<path fill-rule="evenodd" clip-rule="evenodd" d="M326.63 215.619C324.915 209.734 315.64 202.002 311.83 199.564C309.416 198.082 306.911 196.752 304.33 195.584C304.673 195.535 304.938 195.495 305.104 195.466C306.912 195.146 314.487 197.083 321.614 204.466C328.251 211.344 331.443 217.766 326.806 220.054C327.223 218.595 327.161 217.041 326.63 215.619Z" fill="#E2CAB6"/>
<path fill-rule="evenodd" clip-rule="evenodd" d="M310.442 202.604C310.613 202.473 310.726 202.28 310.756 202.066C310.786 201.853 310.73 201.636 310.602 201.463C310.473 201.29 310.282 201.174 310.069 201.141C309.856 201.108 309.638 201.16 309.463 201.286C308.707 202.195 308.014 203.154 307.389 204.157C306.918 204.879 306.516 205.644 306.189 206.442C305.789 207.455 305.529 208.518 305.416 209.602C305.407 209.818 305.484 210.028 305.629 210.188C305.775 210.347 305.978 210.443 306.193 210.453C306.409 210.464 306.62 210.389 306.781 210.244C306.941 210.1 307.038 209.898 307.05 209.682C307.153 208.766 307.379 207.868 307.723 207.012C308.011 206.319 308.363 205.654 308.775 205.027C309.576 203.751 310.397 202.637 310.442 202.604Z" fill="#F98300"/>
<path fill-rule="evenodd" clip-rule="evenodd" d="M308.035 211.558C307.988 211.765 308.023 211.983 308.132 212.165C308.242 212.346 308.418 212.479 308.624 212.533C308.829 212.588 309.048 212.561 309.233 212.457C309.419 212.354 309.557 212.182 309.619 211.979C309.979 210.591 310.523 209.258 311.237 208.015C311.977 206.768 312.831 205.592 313.789 204.503C313.863 204.422 313.92 204.327 313.956 204.224C313.993 204.121 314.008 204.011 314.002 203.902C313.995 203.792 313.967 203.685 313.918 203.587C313.869 203.489 313.802 203.401 313.719 203.33C313.635 203.258 313.539 203.204 313.435 203.171C313.33 203.137 313.22 203.125 313.111 203.135C313.002 203.145 312.896 203.176 312.799 203.228C312.702 203.279 312.617 203.35 312.548 203.435C311.523 204.601 310.61 205.86 309.821 207.197C309.034 208.565 308.434 210.031 308.035 211.558Z" fill="#F98300"/>
<path fill-rule="evenodd" clip-rule="evenodd" d="M311.043 213.562C311.03 213.671 311.04 213.781 311.07 213.887C311.101 213.992 311.152 214.09 311.222 214.175C311.291 214.26 311.376 214.33 311.473 214.382C311.57 214.433 311.676 214.464 311.785 214.474C311.895 214.484 312.005 214.471 312.109 214.438C312.213 214.404 312.31 214.35 312.393 214.278C312.476 214.207 312.544 214.119 312.592 214.021C312.641 213.922 312.669 213.815 312.676 213.706C313.013 212.506 313.52 211.361 314.183 210.306C314.722 209.229 315.419 208.238 316.251 207.366C316.339 207.304 316.414 207.226 316.471 207.135C316.529 207.045 316.568 206.943 316.587 206.838C316.605 206.732 316.603 206.623 316.579 206.518C316.556 206.414 316.512 206.314 316.45 206.226C316.389 206.139 316.31 206.064 316.22 206.006C316.129 205.948 316.028 205.909 315.922 205.891C315.816 205.872 315.708 205.875 315.603 205.898C315.498 205.921 315.399 205.965 315.311 206.027C314.272 207.032 313.409 208.205 312.758 209.496C311.974 210.751 311.395 212.124 311.043 213.562Z" fill="#F98300"/>
<path fill-rule="evenodd" clip-rule="evenodd" d="M274.62 89.936C259.65 73.79 252.594 42.874 272.15 25.859C284.72 14.92 292.94 13.861 301.2 21.261C347 26.851 327.225 67.469 341.393 79.195C345.25 82.386 327.493 92.602 321.767 94.846C316.041 97.09 308.215 96.526 297.978 93.046C287.741 89.566 281.371 88.012 274.62 89.936Z" fill="#651906"/>
<path fill-rule="evenodd" clip-rule="evenodd" d="M266.444 231.719C266.758 229.977 267.373 226.5 276.778 215.196C286.183 203.892 302.778 195.889 302.778 195.889L306.664 200.221C306.664 200.221 282.35 244.738 278.064 246.529C273.778 248.32 266.444 231.719 266.444 231.719Z" fill="#351805"/>
<path fill-rule="evenodd" clip-rule="evenodd" d="M339.838 201.97C341.473 203.618 355.5 217.126 361.747 215.347C367.994 213.568 364.838 206.708 357.712 199.322C350.586 191.936 343.012 189.999 341.202 190.322C331.538 192.032 335.251 197.339 339.838 201.97Z" fill="#00663E"/>
<path fill-rule="evenodd" clip-rule="evenodd" d="M362.732 210.471C361.017 204.586 351.742 196.854 347.932 194.416C345.518 192.934 343.013 191.604 340.432 190.436C340.775 190.387 341.04 190.347 341.206 190.318C343.014 189.997 350.589 191.935 357.716 199.318C364.353 206.196 367.545 212.618 362.908 214.906C363.325 213.447 363.263 211.893 362.732 210.471Z" fill="#E2CAB6"/>
<path fill-rule="evenodd" clip-rule="evenodd" d="M346.544 197.456C346.715 197.325 346.828 197.132 346.858 196.918C346.888 196.705 346.832 196.488 346.704 196.315C346.575 196.142 346.384 196.026 346.171 195.993C345.957 195.96 345.74 196.012 345.565 196.138C344.809 197.046 344.117 198.006 343.492 199.009C343.02 199.731 342.618 200.496 342.292 201.294C341.893 202.308 341.633 203.371 341.519 204.454C341.513 204.562 341.528 204.67 341.564 204.771C341.6 204.873 341.656 204.967 341.728 205.047C341.8 205.127 341.887 205.192 341.985 205.239C342.082 205.285 342.188 205.312 342.296 205.317C342.403 205.322 342.511 205.306 342.613 205.27C342.714 205.233 342.808 205.177 342.887 205.104C342.967 205.031 343.031 204.943 343.077 204.846C343.123 204.748 343.148 204.642 343.153 204.534C343.256 203.618 343.482 202.719 343.826 201.864C344.115 201.173 344.468 200.509 344.88 199.883C345.678 198.603 346.499 197.49 346.544 197.456Z" fill="#F98300"/>
<path fill-rule="evenodd" clip-rule="evenodd" d="M344.133 206.41C344.086 206.617 344.121 206.835 344.23 207.017C344.34 207.198 344.516 207.331 344.722 207.385C344.927 207.44 345.146 207.413 345.331 207.309C345.517 207.206 345.655 207.034 345.717 206.831C346.077 205.443 346.621 204.11 347.335 202.867C348.075 201.619 348.929 200.443 349.887 199.354C350.029 199.189 350.099 198.975 350.083 198.759C350.066 198.543 349.965 198.342 349.8 198.2C349.635 198.059 349.421 197.988 349.205 198.005C348.989 198.021 348.788 198.122 348.646 198.287C347.621 199.453 346.708 200.712 345.919 202.049C345.132 203.417 344.532 204.883 344.133 206.41Z" fill="#F98300"/>
<path fill-rule="evenodd" clip-rule="evenodd" d="M347.144 208.414C347.131 208.523 347.141 208.633 347.171 208.738C347.202 208.844 347.253 208.942 347.323 209.027C347.392 209.112 347.477 209.182 347.574 209.234C347.671 209.285 347.777 209.316 347.886 209.326C347.996 209.336 348.106 209.323 348.21 209.29C348.314 209.256 348.411 209.202 348.494 209.13C348.577 209.059 348.645 208.971 348.693 208.873C348.742 208.774 348.771 208.667 348.777 208.558C349.114 207.358 349.622 206.213 350.285 205.158C350.824 204.081 351.521 203.09 352.352 202.218C352.53 202.093 352.65 201.903 352.688 201.69C352.725 201.476 352.676 201.256 352.552 201.078C352.427 200.901 352.237 200.78 352.023 200.743C351.809 200.705 351.59 200.754 351.412 200.879C350.372 201.884 349.509 203.057 348.859 204.348C348.075 205.604 347.496 206.976 347.144 208.414Z" fill="#F98300"/>
<path fill-rule="evenodd" clip-rule="evenodd" d="M299.65 230.995C299.964 229.254 302.419 223.507 311.824 212.202C321.229 200.897 336.776 192.402 336.776 192.402C340.184 191.802 342.603 198.526 339.841 201.969C332.533 211.078 316.691 242.035 313.1 243.533C308.81 245.326 299.65 230.995 299.65 230.995Z" fill="#45260C"/>
<path fill-rule="evenodd" clip-rule="evenodd" d="M254.887 165.347C253.794 172.395 253.58 179.552 254.25 186.653C255.425 197.639 261.091 232.695 271.397 243.984C281.703 255.273 279.986 238.095 280.477 220.671C280.968 203.247 274.956 174.414 274.956 174.414L254.887 165.347Z" fill="#45260C"/>
<path fill-rule="evenodd" clip-rule="evenodd" d="M270.049 164.965C270.295 169.873 281.337 213.308 294.344 230.486C307.351 247.664 315.939 250.363 315.444 230.486C314.949 210.609 299.478 168.322 299.478 168.322L270.049 164.965Z" fill="#45260C"/>
<path fill-rule="evenodd" clip-rule="evenodd" d="M315.937 109.25L325.731 128.496L343.645 102.842C343.616 102.564 343.61 102.283 343.628 102.004C343.136 99.175 342.566 94.295 342.62 93.804C342.694 93.127 344.785 85.589 345.42 86.633C346.767 88.833 345.361 91.544 345.633 94.671C346.097 93.481 346.547 92.452 346.866 91.798C348.028 89.417 352.396 79.516 353.747 80.321C355.098 81.126 350.387 92.373 350.723 92.483C351.059 92.593 360.252 79.048 362.223 80.241C364.194 81.434 353.666 94.248 354.138 94.559C354.61 94.87 363.403 83.952 364.876 85.393C366.349 86.834 356.467 97.077 357.39 97.065C358.313 97.053 366.323 89.576 367.427 91.148C368.531 92.72 358.627 100.074 358.627 100.074C358.627 100.074 355.11 104.403 352.422 106.092C349.776 107.755 349.849 107.413 349.852 107.401C349.855 107.389 331.337 141.849 326.628 143.419C321.919 144.989 305.868 123.108 305.868 123.108L315.936 109.248L315.937 109.25Z" fill="#FBB98C"/>
<path fill-rule="evenodd" clip-rule="evenodd" d="M251.669 94.99L232.398 104.733L233.108 72.989L225.393 73.46C225.393 73.46 219.983 112.194 222.857 116.246C225.731 120.298 251.605 112.12 251.605 112.12L251.669 94.99Z" fill="#FBB98C"/>
<path fill-rule="evenodd" clip-rule="evenodd" d="M228.451 73.274L225.392 73.46C225.392 73.46 219.982 112.194 222.856 116.245C225.73 120.296 251.604 112.12 251.604 112.12L251.616 108.832C248.144 110.354 244.743 111.592 243.684 111.189C241.327 110.289 238.247 103.836 238.247 103.836C238.247 103.836 239.756 111.076 236.838 112.984C233.92 114.892 226.738 114.784 225.954 113.208C225.17 111.632 229.891 74.838 228.828 73.887C228.666 73.7071 228.539 73.4994 228.451 73.274Z" fill="#FAAD7B"/>
<path fill-rule="evenodd" clip-rule="evenodd" d="M322.641 120.796L312.019 132.466L299.933 119.43C299.77 119.255 283.395 132.23 288.966 154.185C290.028 158.371 296.295 161.901 299.02 167.04C304.806 177.947 260.99 185.877 254.25 186.655C252.898 184.196 251.45 171.018 255.044 163.848C264.503 144.948 252.318 123.867 253.328 114.799C253.328 114.799 240.397 117.579 240.628 115.992C240.859 114.405 237.072 101.683 238.428 101.683C239.361 101.683 258.218 89.983 262.106 89.753C266.297 89.51 271.025 89.282 274.622 89.934C283.135 91.479 289.145 93.803 296.745 94.199C299.375 94.876 304.395 96.256 307.493 98.955C314.036 104.659 319.009 114.348 322.641 120.796Z" fill="#00B18F"/>
<path fill-rule="evenodd" clip-rule="evenodd" d="M274.622 89.936C275.378 90.064 276.847 90.08 277.572 90.215C282.119 91.063 285.496 92.159 291.2 93.015C293.054 93.295 294.852 94.062 296.745 94.197C296.858 94.633 296.915 95.0816 296.915 95.532C296.915 100.072 291.152 103.753 284.044 103.753C276.936 103.753 271.173 100.072 271.173 95.532C271.173 93.372 272.482 91.404 274.622 89.936Z" fill="#F9A873"/>
<path fill-rule="evenodd" clip-rule="evenodd" d="M293.853 81.871C293.286 83.685 290.678 97.18 290.678 97.18C290.678 97.18 284.101 100.128 280.246 97.747C276.391 95.366 276.046 93.778 276.046 93.778L281.715 80.51L293.853 81.871Z" fill="#F9A873"/>
<path fill-rule="evenodd" clip-rule="evenodd" d="M299.049 25.119C283.69 21.81 271.763 34.312 267.981 51.866C264.199 69.42 269.995 85.378 285.355 88.687C300.715 91.996 313.255 79.987 317.039 62.435C320.823 44.883 314.409 28.427 299.049 25.119Z" fill="#FBB98C"/>
<path fill-rule="evenodd" clip-rule="evenodd" d="M302.96 54.886C301.536 54.886 300.08 56.806 299.706 59.174C299.332 61.542 300.183 63.463 301.606 63.463C303.029 63.463 304.486 61.543 304.86 59.174C305.234 56.805 304.383 54.886 302.96 54.886Z" fill="#4D0C01"/>
<path fill-rule="evenodd" clip-rule="evenodd" d="M279.14 47.537C277.717 47.537 276.26 49.456 275.886 51.825C275.512 54.194 276.364 56.113 277.786 56.113C279.208 56.113 280.666 54.193 281.039 51.825C281.412 49.457 280.564 47.537 279.14 47.537Z" fill="#4D0C01"/>
<path fill-rule="evenodd" clip-rule="evenodd" d="M291.341 57.747C291.341 58.439 284.332 62.847 284.332 62.847C283.067 64.918 289.544 69.059 291.168 67.086C289.987 66.9809 288.856 66.5633 287.891 65.8761C286.925 65.1889 286.16 64.2569 285.674 63.176C287.049 62.319 291.474 59.577 291.341 57.747Z" fill="#F79961"/>
<path fill-rule="evenodd" clip-rule="evenodd" d="M318.54 59.235C315.687 59.235 312.851 62.294 312.205 66.066C311.559 69.838 313.347 72.897 316.205 72.897C319.063 72.897 321.894 69.838 322.541 66.066C323.188 62.294 321.392 59.235 318.54 59.235Z" fill="#FBB98C"/>
<path fill-rule="evenodd" clip-rule="evenodd" d="M266.617 45.705C263.764 45.705 261.272 48.763 261.048 52.536C260.824 56.309 262.958 59.367 265.81 59.367C268.662 59.367 271.155 56.308 271.379 52.536C271.603 48.764 269.471 45.705 266.617 45.705Z" fill="#FBB98C"/>
<path fill-rule="evenodd" clip-rule="evenodd" d="M299.6 52.372C303.591 50.684 309.371 51.966 310.1 56.922C310.465 59.394 311.386 58.214 311.316 56.652C311.062 50.921 302.556 47.752 299.316 50.374C298.595 50.954 299.172 52.374 299.6 52.372Z" fill="#651906"/>
<path fill-rule="evenodd" clip-rule="evenodd" d="M317.999 61.592C321.806 61.592 321.691 68.473 317.474 70.3C315.222 71.276 314.884 69.286 315.297 68.649C315.71 68.012 316.761 68.311 317.474 66.922C318.187 65.533 317.044 65.912 316.874 64.37C316.861 63.8545 316.954 63.3419 317.148 62.864C317.341 62.386 317.631 61.9531 317.999 61.592Z" fill="#F39157"/>
<path fill-rule="evenodd" clip-rule="evenodd" d="M267.835 47.997C264.618 45.961 261.035 51.838 263.623 55.637C265.004 57.666 266.354 56.166 266.346 55.406C266.338 54.646 265.289 54.337 265.43 52.782C265.571 51.227 266.33 52.159 267.302 50.947C267.588 50.5181 267.783 50.0349 267.875 49.5274C267.967 49.0199 267.953 48.499 267.835 47.997Z" fill="#F39157"/>
<path fill-rule="evenodd" clip-rule="evenodd" d="M292.86 86.249C301.7 85.621 309.173 79.979 313.954 71.449C313.993 71.487 314.032 71.524 314.072 71.561C309.572 81.561 301.729 88.368 292.263 89.161C289.949 89.3474 287.621 89.1887 285.354 88.69C283.202 88.2372 281.125 87.4792 279.187 86.439C270.273 81.607 266.192 71.207 266.95 59.209C267.022 59.188 267.091 59.166 267.162 59.141C267.181 70.154 271.562 79.473 280.315 83.799C282.137 84.6922 284.065 85.3517 286.052 85.762C288.288 86.2407 290.579 86.4046 292.86 86.249Z" fill="#FAAD79"/>
<path fill-rule="evenodd" clip-rule="evenodd" d="M279.472 68.183C279.22 68.6508 279.006 69.138 278.832 69.64C278.41 70.7998 278.221 72.0319 278.277 73.265C278.333 74.4981 278.633 75.7078 279.159 76.8245C279.685 77.9412 280.427 78.9427 281.342 79.7713C282.257 80.5998 283.327 81.239 284.49 81.652C286.87 82.42 289.458 82.2164 291.689 81.0855C293.92 79.9546 295.614 77.988 296.402 75.614C296.577 75.1124 296.711 74.5974 296.802 74.074L279.472 68.183Z" fill="#891207"/>
<path fill-rule="evenodd" clip-rule="evenodd" d="M295.157 73.515L294.598 75.075C294.489 75.3761 294.265 75.6218 293.975 75.7584C293.686 75.895 293.354 75.9114 293.052 75.804L280.87 71.433C280.569 71.3243 280.323 71.1007 280.186 70.8111C280.05 70.5215 280.033 70.1895 280.141 69.888L280.613 68.57L295.157 73.515Z" fill="white"/>
<path fill-rule="evenodd" clip-rule="evenodd" d="M286.293 106.421C284.407 106.421 282.541 106.803 280.807 107.544C279.073 108.285 277.507 109.37 276.204 110.732C274.895 109.29 273.298 108.137 271.517 107.348C269.736 106.559 267.81 106.151 265.862 106.151C262.104 106.205 258.517 107.737 255.879 110.414C253.24 113.091 251.761 116.699 251.761 120.458C251.761 124.216 253.24 127.824 255.879 130.501C258.517 133.178 262.104 134.71 265.862 134.764C267.748 134.764 269.614 134.382 271.347 133.641C273.081 132.899 274.647 131.815 275.95 130.452C277.259 131.895 278.856 133.048 280.637 133.837C282.418 134.626 284.345 135.034 286.293 135.035C290.046 134.972 293.624 133.437 296.256 130.761C298.888 128.085 300.363 124.482 300.363 120.728C300.363 116.974 298.888 113.371 296.256 110.695C293.624 108.019 290.046 106.484 286.293 106.421Z" fill="#00B18F"/>
<path fill-rule="evenodd" clip-rule="evenodd" d="M294.613 23.7C295.467 37.367 306.534 54.689 321.32 57.627C332.964 59.94 315.54 32.906 312.792 30.32C305.843 23.786 294.613 23.7 294.613 23.7Z" fill="#651906"/>
<path fill-rule="evenodd" clip-rule="evenodd" d="M300.933 25.273C298.254 28.289 297.469 33.002 285.35 35.919C273.231 38.836 267.172 43.886 267.172 43.886C267.172 43.886 267.712 33.772 278.393 27.054C289.074 20.336 300.933 25.273 300.933 25.273Z" fill="#651906"/>
<path fill-rule="evenodd" clip-rule="evenodd" d="M275.808 35.887C275.145 36.551 270.923 41.531 269.454 46.51C267.985 51.489 267.178 59.078 267.082 58.556C266.986 58.034 265.849 48.786 267.509 44.234C268.281 42.0019 269.182 39.8168 270.209 37.69L275.808 35.887Z" fill="#651906"/>
<path fill-rule="evenodd" clip-rule="evenodd" d="M315.529 46.156C315.743 47.07 316.703 53.528 315.329 58.533C313.955 63.538 310.634 70.411 310.989 70.018C311.344 69.625 317.189 62.369 318.181 57.624C318.703 55.3202 319.089 52.9879 319.337 50.639L315.529 46.156Z" fill="#651906"/>
<path fill-rule="evenodd" clip-rule="evenodd" d="M286.256 48.302C284.277 44.447 279.019 41.724 275.28 45.057C273.415 46.72 273.465 45.224 274.52 44.069C278.39 39.834 286.948 42.862 287.757 46.951C287.937 47.858 286.583 48.578 286.256 48.302Z" fill="#651906"/>
<path fill-rule="evenodd" clip-rule="evenodd" d="M225.884 74.27C226.859 74.453 230.994 75.67 233.324 74.538C235.654 73.406 238.308 65.007 238.974 62.148C239.64 59.289 242.812 47.7 241.056 47.56C239.3 47.42 235.476 60.427 235.103 60.312C234.73 60.197 236.244 42.298 233.671 42.112C231.098 41.926 231.271 60.018 230.636 59.994C230.001 59.97 230.008 44.67 227.695 45.019C225.382 45.368 226.809 60.761 226.008 60.165C225.207 59.569 223.465 47.829 221.383 48.529C219.301 49.229 222.783 62.059 222.783 62.059C222.783 62.059 222.808 68.146 223.973 71.359C225.138 74.572 225.884 74.27 225.884 74.27Z" fill="#FBB98C"/>
<path fill-rule="evenodd" clip-rule="evenodd" d="M225.145 61.687C225.145 61.687 224.178 63.357 225.652 67.564C226.236 69.2013 226.969 70.7816 227.842 72.285C228.364 73.2076 228.943 74.0976 229.573 74.95C228.331 74.7966 227.099 74.5695 225.884 74.27C225.884 74.27 225.556 74.404 224.992 73.546C224.573 72.8575 224.233 72.1243 223.978 71.36C222.813 68.149 222.788 62.06 222.788 62.06C222.788 62.06 219.302 49.23 221.388 48.53C221.459 48.505 221.535 48.4952 221.61 48.501C221.517 50.9859 221.771 53.4716 222.366 55.886C222.997 57.9476 223.934 59.9029 225.145 61.687Z" fill="#FBB98C"/>
<path d="M260.657 16.754L198.632 26.631L205.515 69.8524L267.539 59.9754L260.657 16.754Z" fill="#0072A3"/>
<path d="M254.401 25.7526L250.339 26.315L253.988 52.6746L258.051 52.1122L254.401 25.7526Z" fill="white"/>
<path fill-rule="evenodd" clip-rule="evenodd" d="M231.775 74.958C232.182 74.565 233.075 74.972 234.032 73.992C236.309 71.4581 238.428 68.7864 240.377 65.992C240.802 65.392 244.29 57.3 242.99 57.824C239.559 59.21 239.353 64.032 234.875 66.641C229.861 69.557 228.262 74.045 231.775 74.958Z" fill="#FBB98C"/>
<path fill-rule="evenodd" clip-rule="evenodd" d="M227.842 72.286C226.97 70.7824 226.236 69.2022 225.652 67.565C225.545 67.2603 225.451 66.9693 225.369 66.692L223.095 67.054C223.232 68.5175 223.529 69.9617 223.979 71.361C224.257 72.2894 224.7 73.1602 225.286 73.932C225.559 74.232 228.948 75.221 228.986 74.882C229.069 74.046 227.842 72.286 227.842 72.286Z" fill="#FAAD7B"/>
<path fill-rule="evenodd" clip-rule="evenodd" d="M307.832 150.503C309.389 150.295 310.694 146.503 323.552 152.935C336.41 159.367 349.439 173.035 348.4 175.435C348.4 175.435 340.393 185.802 332.894 188.105C329.208 189.237 308.454 165.364 306.094 159.565C303.734 153.766 307.832 150.503 307.832 150.503Z" fill="#A14616"/>
<path fill-rule="evenodd" clip-rule="evenodd" d="M307.832 150.502C309.389 150.295 310.694 146.502 323.552 152.935C336.41 159.368 349.439 173.035 348.4 175.435C346.639 177.643 344.725 179.724 342.671 181.663C342.835 179.766 343.169 177.888 343.671 176.051C345.018 171.227 329.062 156.1 319.771 154.731C311.414 153.501 308.031 158.547 306.685 160.731C306.467 160.353 306.272 159.962 306.101 159.56C303.739 153.765 307.832 150.502 307.832 150.502Z" fill="#9B3F13"/>
<path fill-rule="evenodd" clip-rule="evenodd" d="M260.799 90.051C260.799 90.051 264.108 119.111 274.88 137.289C282.049 149.389 305.756 151.315 315.294 163.498C315.294 163.498 322.794 159.528 321.625 158.146C305.347 138.865 274.766 149.615 269.157 99.137C268.686 95.9435 268.713 92.6962 269.237 89.511C267.906 88.8561 266.426 88.5614 264.946 88.6562C263.466 88.7509 262.036 89.2318 260.799 90.051Z" fill="#763915"/>
<path fill-rule="evenodd" clip-rule="evenodd" d="M299.456 157.932C301.965 166.632 311.683 179.819 315.838 188.448C316.951 190.71 317.913 193.042 318.718 195.431C316.572 196.304 314.464 197.087 312.594 197.673C311.272 196.984 309.891 196.415 308.468 195.973C304.168 181.137 299.481 168.324 299.481 168.324C299.394 167.875 299.239 167.441 299.021 167.039C297.661 164.475 295.421 162.312 293.384 160.268C295.303 159.539 297.561 158.667 299.456 157.932Z" fill="#2E1002"/>
<path fill-rule="evenodd" clip-rule="evenodd" d="M299.456 157.931C297.562 158.666 295.304 159.538 293.384 160.269C292.409 159.323 291.489 158.321 290.629 157.269C290.306 156.861 290.009 156.434 289.741 155.988C291.849 154.178 294.185 152.653 296.69 151.452C297.461 151.793 298.231 152.136 298.998 152.483C298.978 152.609 298.961 152.735 298.945 152.863C298.8 154.102 298.859 155.357 299.118 156.577C299.208 157.016 299.322 157.468 299.456 157.931Z" fill="#CB6224"/>
<path fill-rule="evenodd" clip-rule="evenodd" d="M296.912 173.474C294.957 175.013 292.804 176.284 290.512 177.252C285.942 179.217 281.228 180.829 276.412 182.073C275.679 182.273 274.947 182.466 274.218 182.651C267.641 184.353 260.974 185.691 254.249 186.657C253.805 185.637 253.507 184.56 253.363 183.457C252.499 178.448 252.28 169.367 255.043 163.847C260.63 152.684 258.667 140.76 256.33 130.999C258.84 133.335 264.024 134.761 265.861 134.761C267.028 134.761 265.361 150.579 265.348 164.391C265.341 172.122 257.211 182.943 260.283 183.561C268.739 185.264 292.318 173.802 296.912 173.474Z" fill="#009974"/>
<path fill-rule="evenodd" clip-rule="evenodd" d="M255.467 125.947C257.599 131.558 265.867 134.765 265.867 134.765C262.328 134.766 258.921 133.421 256.336 131.003C254.724 129.5 253.478 127.648 252.694 125.588C251.911 123.528 251.61 121.316 251.814 119.122C252.019 116.927 252.725 114.809 253.877 112.93C255.028 111.051 256.596 109.461 258.458 108.283C257.276 110.31 255.889 112.651 255.135 113.997C253.559 116.801 253.335 120.336 255.467 125.947Z" fill="#009974"/>
<path fill-rule="evenodd" clip-rule="evenodd" d="M252.869 114.897C250.561 115.375 240.428 117.397 240.628 115.997C240.645 115.722 240.629 115.446 240.58 115.175C240.297 113.133 239.045 108.352 238.451 105.068C238.351 104.322 238.251 103.841 238.251 103.841C238.251 103.841 241.331 110.295 243.688 111.194C244.746 111.594 248.148 110.359 251.62 108.838C255.877 106.971 260.241 104.678 260.52 104.462C260.782 104.262 259.739 106.087 258.457 108.286C255.957 109.86 254.005 112.169 252.869 114.897Z" fill="#009974"/>
<path fill-rule="evenodd" clip-rule="evenodd" d="M349.855 107.4C349.855 107.4 331.34 141.849 326.627 143.42C323.956 144.31 317.644 137.667 312.676 131.744L319.376 124.383C318.594 126.365 317.919 128.388 317.353 130.442C317.353 131.115 322.74 138.465 325.881 138.69C329.022 138.915 346.415 108.953 346.696 108.421C346.977 107.889 345.686 104.578 345.517 104.321C345.348 104.064 347.93 105.721 349.388 106.089C350.846 106.457 354.634 102.246 355.504 101.18C356.374 100.114 356.149 97.73 356.149 97.73L357.833 99.048L367.426 91.143C368.526 92.715 358.626 100.069 358.626 100.069C358.626 100.069 355.109 104.398 352.421 106.087C349.779 107.754 349.852 107.412 349.855 107.4Z" fill="#FAAD7B"/>
<path fill-rule="evenodd" clip-rule="evenodd" d="M295.319 127.538C296.511 125.651 297.323 123.549 297.709 121.35C298.221 118.979 298.596 116.581 298.832 114.167C299.156 111.046 299.232 108.673 299.232 108.673C299.232 108.673 303.643 115.612 307.445 120.94C309.475 123.785 311.33 126.171 312.245 126.796C314.882 128.596 319.707 123.485 319.707 123.485C319.707 123.485 319.575 123.837 319.374 124.385L312.674 131.746L312.016 132.468L300.371 119.908C300.386 120.179 300.394 120.453 300.394 120.729C300.409 123.933 299.346 127.049 297.376 129.575C295.405 132.101 292.641 133.891 289.53 134.656C289.105 135.92 288.757 137.209 288.487 138.515C286.845 137.401 285.29 136.164 283.836 134.815C278.136 129.515 273.392 121.715 270.688 108.863C271.816 111.722 273.22 115.088 274.711 117.984C277.641 123.38 281.099 128.471 285.035 133.184C285.357 133.435 288.04 132.926 290.835 131.343C292.573 130.392 294.098 129.098 295.319 127.538Z" fill="#009974"/>
<path fill-rule="evenodd" clip-rule="evenodd" d="M267.186 119.36C268.644 124.047 270.449 128.618 272.586 133.036C273.31 134.504 274.076 135.927 274.886 137.289C277.51 141.715 282.346 144.78 287.892 147.484C288.047 149.746 288.408 151.988 288.971 154.184C289.141 154.82 289.402 155.428 289.746 155.99C290.014 156.436 290.311 156.863 290.634 157.271C291.494 158.323 292.414 159.325 293.389 160.271C295.425 162.315 297.666 164.479 299.026 167.042C299.244 167.444 299.399 167.878 299.486 168.327C299.578 168.897 299.554 169.481 299.415 170.041C299.275 170.602 299.024 171.129 298.676 171.59C297.676 170.49 296.51 169.209 295.276 167.847C293.452 165.831 291.485 163.647 289.709 161.639C289.284 161.161 288.873 160.694 288.474 160.239C288.269 160.006 288.075 159.775 287.893 159.545C283.353 153.845 285.769 149.686 285.769 149.686C285.769 149.686 278.363 145.534 274.941 140.541C273.642 138.295 272.578 135.921 271.766 133.456C270.151 129.075 268.467 123.676 267.186 119.36Z" fill="#009974"/>
<path fill-rule="evenodd" clip-rule="evenodd" d="M299.933 28.353C302.512 39.245 307.971 48.709 316.764 55.733C306.589 51.013 299.874 39.464 299.933 28.353Z" fill="#7E290F"/>
<path fill-rule="evenodd" clip-rule="evenodd" d="M305.66 26.669C306.728 37.805 314.292 46.864 323.502 52.703C313.44 49.239 303.606 37.932 305.66 26.669Z" fill="#5A1404"/>
<path fill-rule="evenodd" clip-rule="evenodd" d="M311.491 30.26C314.191 33.06 329.191 47.674 327.201 51.468C327.109 51.3683 327.049 51.2438 327.028 51.11L327.039 51.161C321.555 42.971 316.794 38.669 311.491 30.26Z" fill="#5A1404"/>
<path fill-rule="evenodd" clip-rule="evenodd" d="M325.181 55.957C326.74 60.888 331.529 74.763 334.832 79.297C328.678 76.913 325.55 60.939 325.181 55.957Z" fill="#5A1404"/>
<path fill-rule="evenodd" clip-rule="evenodd" d="M321.815 74.359C324.336 78.251 326.915 81.633 329.782 85.359C326.698 83.66 319.814 76.422 321.815 74.359Z" fill="#7E290F"/>
<path fill-rule="evenodd" clip-rule="evenodd" d="M313.512 77.838C315.525 81.488 318.53 86.628 322.152 88.722C319.773 90.379 313.107 83.173 313.512 77.838Z" fill="#5A1404"/>
<path fill-rule="evenodd" clip-rule="evenodd" d="M306.442 88.161C305.868 87.843 305.772 86.73 311.254 91.024C312.704 92.1447 314.248 93.1391 315.868 93.996C311.984 94.342 307.726 91.372 306.454 88.139L306.442 88.161ZM306.506 88.047C306.533 88.0409 306.556 88.0256 306.572 88.0038C306.589 87.982 306.597 87.9552 306.595 87.928H306.584C306.554 87.9657 306.528 88.0058 306.505 88.048L306.506 88.047Z" fill="#5A1404"/>
<path fill-rule="evenodd" clip-rule="evenodd" d="M297.689 90.742C301.74 92.35 305.181 93.056 309.359 94.442C304.748 94.913 300.516 94.905 297.689 90.742Z" fill="#7E290F"/>
<path fill-rule="evenodd" clip-rule="evenodd" d="M308.012 84.009C312.368 86.072 314.251 87.871 318.112 90.068C313.645 90.656 310.573 87.171 308.012 84.009Z" fill="#7E290F"/>
<path fill-rule="evenodd" clip-rule="evenodd" d="M297.689 23.19C294.741 32.937 284.504 34.037 276.201 34.916C286.072 31.394 290.805 31.853 297.689 23.19Z" fill="#7E290F"/>
<path fill-rule="evenodd" clip-rule="evenodd" d="M290.732 22.63C284.649 26.412 269.967 33.73 266.632 40.624C266.632 40.636 266.642 40.655 266.658 40.697C266.595 40.712 266.499 40.751 266.458 40.672C263.454 34.737 289.27 23.242 290.732 22.63Z" fill="#5A1404"/>
<path fill-rule="evenodd" clip-rule="evenodd" d="M288.487 19.151C278.955 25.469 283.805 22.466 273.938 28.165L273.963 28.143C273.769 28.309 273.534 28.4199 273.283 28.464C274.794 23.555 284.663 20.66 288.487 19.151Z" fill="#7E290F"/>
<path fill-rule="evenodd" clip-rule="evenodd" d="M296.118 22.181C288.608 28.309 292.666 25.998 284.056 29.306C291.396 23.891 287.401 26.306 296.118 22.181Z" fill="#5A1404"/>
<path fill-rule="evenodd" clip-rule="evenodd" d="M107.79 119.372C106.87 122.384 106.437 125.523 106.505 128.672C106.805 130.789 110.323 142.882 110.323 142.882C110.939 143.298 111.606 143.634 112.306 143.882C113.572 144.355 123.284 132.772 122.606 128.993C121.928 125.214 107.79 119.372 107.79 119.372Z" fill="#583B1B"/>
<path fill-rule="evenodd" clip-rule="evenodd" d="M107.881 126.233C106.695 128.063 109.281 139.465 110.323 142.877C110.488 143.418 94.913 115.141 110.472 101.703C113.198 99.35 120.893 98.198 126.951 97.676C132.625 97.186 151.316 97.034 151.959 97.335C152.076 97.391 116.318 113.212 107.881 126.233Z" fill="#846251"/>
<path fill-rule="evenodd" clip-rule="evenodd" d="M122.412 107.203C116.819 110.226 113.493 114.458 111.075 122.773C108.657 131.088 113.644 127.762 110.923 141.973C108.202 156.184 110.167 170.996 116.516 177.344C122.865 183.692 156.877 182.787 165.342 173.716C173.807 164.645 159.865 111.262 151.112 106.362C142.359 101.462 122.412 107.203 122.412 107.203Z" fill="#503825"/>
<path fill-rule="evenodd" clip-rule="evenodd" d="M129.143 103.728C123.55 106.751 120.224 110.984 117.806 119.298C115.388 127.612 120.375 124.287 117.654 138.498C114.933 152.709 115.386 167.975 121.735 174.324C128.084 180.673 158.335 180.281 166.798 171.212C175.261 162.143 166.59 107.794 157.843 102.89C149.096 97.986 129.143 103.728 129.143 103.728Z" fill="#392515"/>
<path fill-rule="evenodd" clip-rule="evenodd" d="M108.667 102.756C97.716 101.929 101.957 103.47 85.967 98.656C86.606 99.142 69.067 88.19 56.84 64.9L50.675 70.266C61.638 90.722 72.643 103.487 87.597 112.091C92.266 114.777 96.797 114.853 101.597 116.62L108.667 102.756Z" fill="#F9A873"/>
<path fill-rule="evenodd" clip-rule="evenodd" d="M173.201 269.389C172.37 270.296 168.515 273.923 168.515 273.923L164.358 278.912C166.581 283.235 169.054 287.424 171.765 291.459C174.788 295.54 185.597 299.395 186.957 295.238C188.317 291.081 180.003 285.714 178.794 281.784C178.062 279.36 177.731 276.832 177.812 274.301L173.201 269.389Z" fill="#240901"/>
<path fill-rule="evenodd" clip-rule="evenodd" d="M94.069 274.982C94.069 274.982 87.869 282.692 87.569 284.807C87.269 286.922 84.319 304.607 78.727 306.726C73.135 308.845 71.697 302.04 72.906 292.667C74.115 283.294 78.65 277.702 80.162 276.946C81.674 276.19 92.407 269.992 92.407 269.992L94.069 274.982Z" fill="#240901"/>
<path fill-rule="evenodd" clip-rule="evenodd" d="M133.077 179.719C130.099 187.26 116.865 237.031 116.865 237.031L84.365 273.806C84.365 273.806 86.643 284.977 90.296 281.781C92.237 280.081 125.742 253.781 133.327 246.922C137.757 242.914 152.211 210.65 153.173 210.544C155.228 210.316 187.019 230.567 187.019 230.567C187.019 230.567 169.758 270.467 169.544 272.499C169.33 274.531 173.95 277.374 177.832 276.232C181.714 275.09 209.116 233.15 207.746 229.497C206.376 225.844 172.582 179.719 172.582 179.719H133.077Z" fill="#45260C"/>
<path fill-rule="evenodd" clip-rule="evenodd" d="M170.255 118.91C176.008 121.556 176.055 122.871 187.945 124.394C187.361 123.95 206.867 138.826 225.215 147.394L227.95 142.762C216.175 133.172 202.283 120.715 192.898 114.878C186.168 110.693 182.498 110.742 175.698 108.242L170.255 118.91Z" fill="#F9A873"/>
<path fill-rule="evenodd" clip-rule="evenodd" d="M223.113 143.708L225.213 147.392C225.213 147.392 229.613 162.376 230.301 161.477C230.989 160.578 230.301 152.212 230.301 152.212C230.301 152.212 239.013 156.912 240.671 158.503C242.329 160.094 246.341 163.827 245.995 162.583C245.649 161.339 240.741 154.908 240.741 154.908C240.741 154.908 244.341 157.985 244.751 158.469C245.161 158.953 247.482 161.369 247.586 159.818C247.717 157.851 237.337 147.224 235.026 146.318C233.09 145.557 227.948 142.763 227.948 142.763L223.113 143.708Z" fill="#F9A873"/>
<path fill-rule="evenodd" clip-rule="evenodd" d="M230.302 151.208C232.031 152.867 237.044 156.908 237.112 157.154C237.18 157.4 240.327 165.139 240.673 163.964C241.019 162.789 239.463 156.564 239.325 156.359C239.187 156.154 233.625 151 233.344 150.966C233.063 150.932 230.302 151.208 230.302 151.208Z" fill="#F9A873"/>
<path fill-rule="evenodd" clip-rule="evenodd" d="M234.737 147.892C235.361 148.277 236.1 148.43 236.825 148.323L246.641 156.546C246.641 156.546 247.056 157.037 245.658 156.961C244.26 156.885 235.379 149.668 235.379 149.668L234.737 147.892Z" fill="#F9A873"/>
<path fill-rule="evenodd" clip-rule="evenodd" d="M187.945 124.394C187.361 123.95 206.867 138.826 225.214 147.394L223.506 144.4L191.655 122.378L192.603 114.727C192.444 115.952 189.874 120.634 187.945 124.394Z" fill="#F59A60"/>
<path fill-rule="evenodd" clip-rule="evenodd" d="M223.507 144.398L225.215 147.392C225.215 147.392 229.144 160.785 230.158 161.492L230.303 161.481L226.774 146.436L226.044 145.982L223.507 144.398Z" fill="#F9A873"/>
<path fill-rule="evenodd" clip-rule="evenodd" d="M89.944 99.846L86.924 121.655L119.364 127.455C119.364 127.455 123.218 180.276 123.247 193.701C123.266 202.055 168.928 196.252 181.647 187.147L167.886 124.672C167.886 124.672 185.721 132.067 185.493 130.472C185.265 128.877 194.145 114.172 192.775 114.172C191.835 114.172 165.519 97.733 161.604 97.505C157.385 97.259 152.625 97.03 149.004 97.686C140.433 99.243 134.092 103.046 126.731 101.981C121.48 100.576 105.84 101.236 89.944 99.846Z" fill="#F98300"/>
<path fill-rule="evenodd" clip-rule="evenodd" d="M176.073 161.821L167.885 124.67C167.885 124.67 185.72 132.065 185.492 130.47C185.284 129.014 192.641 116.67 192.909 114.498L183.861 123.321L169.651 113.874L162.751 100.651L153.445 97.272C153.003 97.2846 152.567 97.3033 152.138 97.328L163.369 133.234C163.369 133.234 170.229 151.803 170.24 152.717C170.246 153.136 173.052 157.42 176.073 161.821Z" fill="#F27900"/>
<path fill-rule="evenodd" clip-rule="evenodd" d="M149.008 97.682C148.246 97.81 146.768 97.826 146.038 97.963C141.46 98.816 138.059 99.919 132.318 100.786C130.732 101.026 128.538 101.848 126.735 101.976C126.622 102.415 126.565 102.867 126.564 103.32C126.564 107.891 132.364 111.597 139.523 111.597C146.682 111.597 152.481 107.891 152.481 103.32C152.479 101.139 151.161 99.157 149.008 97.682Z" fill="#F9A873"/>
<path fill-rule="evenodd" clip-rule="evenodd" d="M129.646 89.56C130.217 91.387 132.846 104.972 132.846 104.972C132.846 104.972 139.468 107.941 143.346 105.544C147.224 103.147 147.57 101.544 147.57 101.544L141.861 88.19L129.646 89.56Z" fill="#F9A873"/>
<path fill-rule="evenodd" clip-rule="evenodd" d="M107.63 74.897C105.608 71.811 104.298 70.264 99.722 59.297C95.146 48.33 103.128 42.269 103.128 42.269C102.942 37.9761 104.015 33.7225 106.214 30.031C109.832 24.284 111.429 22.794 111.114 23.964C110.799 25.134 111.22 26.625 111.434 25.774C111.648 24.923 118.351 18.75 118.351 18.75C118.351 18.75 119.043 21.836 119.415 21.464C119.787 21.092 120.586 19.495 130.27 16.781C139.954 14.067 147.937 13.695 147.298 14.174C146.659 14.653 143.679 17.366 144.318 17.154C144.957 16.942 152.725 17.154 156.184 16.569C159.643 15.984 161.239 15.239 160.495 15.611C159.751 15.983 156.983 23.011 155.226 24.87C154.685 25.5323 154.079 26.1386 153.417 26.68C153.417 26.68 154.162 25.988 159.856 28.436C165.55 30.884 167.413 33.384 167.093 33.172C166.773 32.96 156.717 34.184 156.717 34.184C156.717 34.184 159.856 45.784 159.324 49.19C158.792 52.596 156.559 63.482 155.865 63.641L107.63 74.897Z" fill="#651906"/>
<path fill-rule="evenodd" clip-rule="evenodd" d="M124.413 32.421C139.877 29.089 151.885 41.676 155.693 59.349C159.501 77.022 153.666 93.089 138.202 96.421C122.738 99.753 110.109 87.663 106.302 69.99C102.495 52.317 108.949 35.753 124.413 32.421Z" fill="#FBB98C"/>
<path fill-rule="evenodd" clip-rule="evenodd" d="M105.296 57.994C105.77 49.28 109.026 41.661 114.876 36.923C120.762 37.303 139.045 40.629 139.045 40.629C139.045 40.629 144.411 44.711 144.865 44.711C145.319 44.711 144.185 45.391 139.726 45.92C135.267 46.449 122.493 44.862 122.039 44.711C121.585 44.56 127.557 50.833 127.557 50.833C127.557 50.833 125.667 51.362 119.167 49.624C116.13 48.6901 113.333 47.1083 110.967 44.988C110.001 46.815 108.838 49.14 107.754 51.212C106.687 53.3751 105.863 55.6496 105.296 57.994Z" fill="#F99D63"/>
<path fill-rule="evenodd" clip-rule="evenodd" d="M106.359 37.932C109.216 40.56 112.959 44.104 122.429 45.701C131.899 47.298 133.497 46.552 133.497 46.552C133.497 46.552 128.389 42.189 129.773 42.614C131.157 43.039 138.18 43.572 143.395 43.678C148.61 43.784 148.295 43.465 148.295 43.465C148.295 43.465 142.336 39.847 143.613 39.847C144.89 39.847 153.404 38.889 153.404 38.889C153.404 38.889 147.976 27.501 137.121 26.438C126.266 25.375 106.359 37.932 106.359 37.932Z" fill="#651906"/>
<path fill-rule="evenodd" clip-rule="evenodd" d="M118.336 61.27C119.769 61.27 121.236 63.204 121.612 65.588C121.988 67.972 121.131 69.906 119.698 69.906C118.265 69.906 116.798 67.972 116.423 65.588C116.048 63.204 116.903 61.27 118.336 61.27Z" fill="#4D0C01"/>
<path fill-rule="evenodd" clip-rule="evenodd" d="M142.922 55.204C144.355 55.204 145.822 57.137 146.198 59.522C146.574 61.907 145.717 63.84 144.284 63.84C142.851 63.84 141.384 61.906 141.008 59.522C140.632 57.138 141.487 55.204 142.922 55.204Z" fill="#4D0C01"/>
<path fill-rule="evenodd" clip-rule="evenodd" d="M130.147 64.074C130.147 64.925 138.768 70.353 138.768 70.353C140.324 72.9 132.358 77.994 130.36 75.568C131.813 75.4389 133.205 74.9245 134.393 74.078C135.581 73.2314 136.522 72.0833 137.118 70.752C135.426 69.698 129.985 66.324 130.147 64.074Z" fill="#F79961"/>
<path fill-rule="evenodd" clip-rule="evenodd" d="M51.41 70.265C52.347 69.851 56.58 68.465 57.904 66.138C59.228 63.811 56.571 55.102 55.466 52.278C54.361 49.454 50.278 37.725 48.7 38.634C47.122 39.543 51.478 52.861 51.094 52.981C50.71 53.101 41.523 36.968 39.223 38.317C36.923 39.666 47.663 54.975 47.11 55.323C46.557 55.671 37.61 42.636 35.84 44.288C34.07 45.94 44.3 58.216 43.268 58.177C42.236 58.138 33.881 49.157 32.517 50.977C31.153 52.797 41.634 61.677 41.634 61.677C41.634 61.677 45.218 66.847 48.089 68.899C50.96 70.951 51.41 70.265 51.41 70.265Z" fill="#F9A873"/>
<path fill-rule="evenodd" clip-rule="evenodd" d="M43.418 59.981C43.418 59.981 43.573 61.969 47.291 64.69C48.7467 65.7428 50.2959 66.66 51.919 67.43C52.9045 67.9094 53.918 68.3288 54.954 68.686C53.806 69.2813 52.624 69.8085 51.414 70.265C51.414 70.265 51.214 70.57 50.23 70.165C49.4701 69.8245 48.7512 69.3992 48.087 68.897C45.215 66.845 41.632 61.675 41.632 61.675C41.632 61.675 31.152 52.788 32.515 50.975C32.5622 50.9123 32.6213 50.8596 32.689 50.82C34.0635 52.9914 35.735 54.9598 37.655 56.668C39.4 58.0536 41.3425 59.1703 43.418 59.981Z" fill="#F9A873"/>
<path d="M47.376 0.916675L0.317017 45.639L31.4819 78.4322L78.5409 33.7099L47.376 0.916675Z" fill="#F98419"/>
<path d="M47.3059 12.2477L44.175 15.104L62.7111 35.4222L65.842 32.5659L47.3059 12.2477Z" fill="white"/>
<path fill-rule="evenodd" clip-rule="evenodd" d="M56.832 67.403C56.949 66.831 57.95 66.654 58.19 65.26C58.6458 61.7677 58.8863 58.2508 58.91 54.729C58.924 53.973 57.155 45.034 56.355 46.243C54.245 49.432 56.891 53.66 54.604 58.502C52.041 63.924 53.306 68.682 56.832 67.403Z" fill="#F9A873"/>
<path fill-rule="evenodd" clip-rule="evenodd" d="M104.453 66.378C107.325 66.378 110.181 69.458 110.831 73.256C111.481 77.054 109.681 80.134 106.809 80.134C103.937 80.134 101.081 77.054 100.43 73.256C99.779 69.458 101.581 66.378 104.453 66.378Z" fill="#FBB98C"/>
<path fill-rule="evenodd" clip-rule="evenodd" d="M157.067 53.148C159.939 53.148 162.449 56.228 162.673 60.026C162.897 63.824 160.751 66.904 157.879 66.904C155.007 66.904 152.496 63.824 152.272 60.026C152.048 56.228 154.194 53.148 157.067 53.148Z" fill="#FBB98C"/>
<path fill-rule="evenodd" clip-rule="evenodd" d="M75.323 303.663C73.358 298.372 75.965 287.563 77.439 283.671C78.4106 281.25 79.5324 278.891 80.798 276.61C80.518 276.763 80.298 276.878 80.161 276.948C78.649 277.704 74.114 283.297 72.905 292.669C71.779 301.398 72.947 307.896 77.63 307.039C76.52 306.189 75.7115 305.006 75.323 303.663Z" fill="#E2CAB6"/>
<path fill-rule="evenodd" clip-rule="evenodd" d="M80.138 285.154C79.9375 285.154 79.7452 285.074 79.6034 284.933C79.4617 284.791 79.382 284.598 79.382 284.398C79.382 284.197 79.4617 284.005 79.6034 283.863C79.7452 283.722 79.9375 283.642 80.138 283.642C81.1952 283.898 82.2336 284.226 83.246 284.624C83.99 284.899 84.7062 285.245 85.385 285.655C86.2372 286.185 87.0133 286.828 87.692 287.567C87.8127 287.722 87.8681 287.918 87.8465 288.113C87.8249 288.308 87.7279 288.487 87.5763 288.612C87.4246 288.736 87.2303 288.797 87.0346 288.78C86.839 288.764 86.6576 288.671 86.529 288.523C85.949 287.904 85.2884 287.366 84.565 286.923C83.9716 286.569 83.3466 286.272 82.698 286.034C81.407 285.526 80.188 285.154 80.138 285.154Z" fill="#F98300"/>
<path fill-rule="evenodd" clip-rule="evenodd" d="M86.837 290.447C86.9936 290.572 87.0944 290.753 87.1171 290.952C87.1397 291.151 87.0825 291.35 86.958 291.507C86.8335 291.664 86.6519 291.764 86.4531 291.787C86.2543 291.81 86.0546 291.753 85.898 291.628C84.8696 290.8 83.7349 290.113 82.524 289.587C81.2921 289.071 80.0145 288.671 78.708 288.393C78.6115 288.371 78.5202 288.331 78.4393 288.274C78.3585 288.217 78.2897 288.144 78.2368 288.061C78.1839 287.977 78.148 287.884 78.1311 287.786C78.1143 287.689 78.1168 287.589 78.1385 287.493C78.1603 287.396 78.2008 287.305 78.2578 287.224C78.3148 287.143 78.3872 287.074 78.4708 287.021C78.5544 286.968 78.6477 286.932 78.7451 286.916C78.8426 286.899 78.9425 286.901 79.039 286.923C80.4365 287.221 81.8029 287.651 83.12 288.205C84.4537 288.783 85.7039 289.537 86.837 290.447Z" fill="#F98300"/>
<path fill-rule="evenodd" clip-rule="evenodd" d="M85.712 293.581C85.8312 293.732 85.888 293.924 85.8709 294.115C85.8537 294.307 85.7639 294.485 85.6197 294.613C85.4756 294.741 85.288 294.809 85.0955 294.803C84.9029 294.797 84.72 294.717 84.584 294.581C83.6771 293.879 82.6734 293.312 81.604 292.897C80.6139 292.397 79.5545 292.047 78.461 291.86C78.2613 291.866 78.0676 291.792 77.9224 291.654C77.7772 291.517 77.6926 291.328 77.687 291.128C77.6814 290.928 77.7554 290.735 77.8927 290.589C78.03 290.444 78.2193 290.36 78.419 290.354C79.7395 290.526 81.0217 290.918 82.212 291.515C83.4811 292.013 84.6626 292.711 85.712 293.581Z" fill="#F98300"/>
<path fill-rule="evenodd" clip-rule="evenodd" d="M175.611 281.869C175.556 281.905 175.494 281.931 175.43 281.943C175.365 281.956 175.298 281.955 175.234 281.942C175.169 281.929 175.108 281.903 175.053 281.866C174.998 281.829 174.951 281.782 174.915 281.727C174.879 281.672 174.853 281.61 174.841 281.546C174.828 281.481 174.829 281.414 174.842 281.35C174.855 281.285 174.881 281.224 174.918 281.169C174.955 281.114 175.002 281.067 175.057 281.031C175.157 280.962 175.257 280.902 175.357 280.851L175.387 280.836C176.094 280.464 176.889 280.291 177.687 280.336C178.061 280.337 178.43 280.424 178.765 280.591C179.1 280.757 179.392 280.999 179.618 281.297C179.65 281.346 179.677 281.39 179.698 281.428C179.73 281.486 179.749 281.55 179.756 281.616C179.763 281.682 179.757 281.748 179.738 281.812C179.719 281.875 179.688 281.934 179.646 281.985C179.605 282.037 179.553 282.08 179.495 282.111C179.437 282.143 179.373 282.162 179.307 282.169C179.241 282.176 179.175 282.17 179.111 282.151C179.048 282.132 178.989 282.101 178.938 282.059C178.886 282.018 178.844 281.966 178.812 281.908L178.78 281.853C178.638 281.687 178.46 281.554 178.26 281.466C178.06 281.377 177.843 281.334 177.624 281.34C177.014 281.308 176.406 281.441 175.865 281.725L175.84 281.738C175.752 281.781 175.678 281.825 175.611 281.869Z" fill="#F98300"/>
<path fill-rule="evenodd" clip-rule="evenodd" d="M183.424 294.609C173.474 293.071 169.647 283.459 165.764 277.226L164.364 278.911C166.587 283.234 169.06 287.423 171.771 291.458C174.794 295.539 185.603 299.394 186.963 295.237C187.066 294.919 187.117 294.587 187.113 294.253C185.927 294.653 184.665 294.775 183.424 294.609Z" fill="#E2CAB6"/>
<path fill-rule="evenodd" clip-rule="evenodd" d="M177.387 285.044C177.332 285.08 177.27 285.106 177.206 285.118C177.141 285.131 177.074 285.131 177.009 285.118C176.945 285.104 176.883 285.079 176.829 285.042C176.774 285.005 176.727 284.958 176.69 284.903C176.654 284.848 176.629 284.786 176.616 284.721C176.604 284.656 176.604 284.59 176.617 284.525C176.63 284.46 176.656 284.399 176.693 284.344C176.73 284.289 176.777 284.242 176.832 284.206C176.932 284.137 177.032 284.077 177.132 284.026L177.162 284.011C177.869 283.639 178.664 283.466 179.462 283.511C179.836 283.512 180.205 283.599 180.54 283.766C180.875 283.932 181.167 284.174 181.393 284.472C181.425 284.521 181.452 284.565 181.473 284.603C181.537 284.721 181.551 284.859 181.513 284.987C181.475 285.115 181.388 285.223 181.27 285.287C181.153 285.35 181.015 285.365 180.887 285.327C180.759 285.289 180.651 285.202 180.587 285.084L180.555 285.028C180.413 284.862 180.235 284.729 180.035 284.641C179.835 284.552 179.618 284.509 179.399 284.515C178.789 284.482 178.181 284.616 177.64 284.9L177.615 284.914C177.528 284.956 177.454 285 177.387 285.044Z" fill="#F98300"/>
<path fill-rule="evenodd" clip-rule="evenodd" d="M179.693 287.953C179.638 287.989 179.576 288.015 179.512 288.027C179.447 288.04 179.38 288.04 179.315 288.027C179.251 288.013 179.189 287.988 179.135 287.951C179.08 287.914 179.033 287.867 178.997 287.812C178.96 287.756 178.935 287.695 178.922 287.63C178.91 287.565 178.91 287.499 178.923 287.434C178.936 287.369 178.962 287.308 178.999 287.253C179.036 287.198 179.083 287.151 179.138 287.115C179.238 287.046 179.338 286.986 179.438 286.935L179.468 286.92C180.175 286.548 180.97 286.376 181.768 286.42C182.142 286.421 182.511 286.508 182.846 286.675C183.181 286.842 183.473 287.083 183.7 287.381C183.729 287.423 183.755 287.468 183.779 287.513C183.843 287.63 183.857 287.768 183.819 287.896C183.781 288.024 183.693 288.132 183.576 288.195C183.459 288.259 183.321 288.273 183.193 288.235C183.065 288.197 182.958 288.109 182.894 287.992L182.861 287.937C182.719 287.771 182.542 287.638 182.342 287.549C182.142 287.46 181.925 287.418 181.706 287.424C181.096 287.391 180.488 287.524 179.947 287.809L179.922 287.823C179.834 287.865 179.759 287.91 179.693 287.953Z" fill="#F98300"/>
<path fill-rule="evenodd" clip-rule="evenodd" d="M118.871 101.132C118.871 101.132 117.053 133.96 117.657 143.632C118.261 153.304 120.895 157.851 122.407 155.432C123.919 153.013 130.007 104.664 129.537 101.432C129.067 98.2 118.796 98.94 118.871 101.132Z" fill="#72513E"/>
<path fill-rule="evenodd" clip-rule="evenodd" d="M161.608 97.498C161.608 97.498 172.608 127.298 173.808 136.975C175.008 146.652 173.219 151.194 171.257 148.775C169.295 146.356 159.801 104.849 151.957 97.335C151.069 94.962 160.444 93.491 161.608 97.498Z" fill="#72513E"/>
<path fill-rule="evenodd" clip-rule="evenodd" d="M123.815 57.931C121.115 58.183 114.071 59.389 112.164 60.222C110.257 61.055 109.992 57.906 111.722 57.322C113.452 56.738 120.1 55.194 122.456 54.833C124.812 54.472 124.559 58.083 123.815 57.931Z" fill="#651906"/>
<path fill-rule="evenodd" clip-rule="evenodd" d="M137.132 55.024C139.564 53.815 146.184 51.134 148.244 50.838C150.304 50.542 148.871 47.725 147.091 48.138C145.311 48.551 138.849 50.738 136.655 51.673C134.461 52.608 136.578 55.544 137.132 55.024Z" fill="#651906"/>
<path fill-rule="evenodd" clip-rule="evenodd" d="M108.395 35.378C107.586 30.653 117.387 23.045 121.47 24.57C116.24 26.9645 111.731 30.6917 108.395 35.378Z" fill="#5A1404"/>
<path fill-rule="evenodd" clip-rule="evenodd" d="M115.273 32.355C127.604 23.968 127.234 25.915 141.651 27.593C131.048 30.561 132.848 25.275 115.273 32.355Z" fill="#5A1404"/>
<path fill-rule="evenodd" clip-rule="evenodd" d="M125.628 21.548C139.428 17.675 146.569 29.048 152.762 22.682C153.282 23.793 150.916 24.855 150.269 25.093C142.137 28.061 138.27 21.542 125.628 21.548Z" fill="#7E290F"/>
<path fill-rule="evenodd" clip-rule="evenodd" d="M131.448 18.221C135.73 16.083 136.133 15.627 140.82 16.709C136.686 18.269 135.86 19.045 131.448 18.221Z" fill="#5A1404"/>
<path fill-rule="evenodd" clip-rule="evenodd" d="M113.761 36.888C116.998 39.611 123.978 42.441 128.123 42.86C128.338 45.16 114.208 42.47 113.761 36.888Z" fill="#7E290F"/>
<path fill-rule="evenodd" clip-rule="evenodd" d="M120.11 34.093C124.005 36.457 136.233 38.746 140.97 38.779C137.329 41.927 120.087 37.581 120.11 34.093Z" fill="#5A1404"/>
<path fill-rule="evenodd" clip-rule="evenodd" d="M124.792 32.356C144.539 28.281 147.575 30.9 156.385 46.716C142.54 31.787 148.675 32.534 124.792 32.356Z" fill="#7E290F"/>
<path fill-rule="evenodd" clip-rule="evenodd" d="M144.75 29.18C150.171 30.806 157.391 30.336 161 31.448C157.695 33.801 144.739 31.99 144.75 29.18Z" fill="#5A1404"/>
<path fill-rule="evenodd" clip-rule="evenodd" d="M139.686 18.524C144.786 19.215 151.946 20.335 156.995 18.75C154.001 24.266 143.316 20.4 139.686 18.524Z" fill="#5A1404"/>
<path fill-rule="evenodd" clip-rule="evenodd" d="M106.846 43.465C105.133 48.621 102.681 53.479 103.237 58.987L103.176 58.973L103.219 58.997C103.219 59.097 103.233 59.057 103.203 59.133C103.186 59.1448 103.165 59.1511 103.144 59.1511C103.123 59.1511 103.102 59.1448 103.085 59.133C98.48 55.773 105.097 45.873 106.846 43.465Z" fill="#7E290F"/>
<path fill-rule="evenodd" clip-rule="evenodd" d="M101.97 46.527C101.356 49.475 100.399 52.327 100.033 55.327L99.984 55.239C100.023 55.431 100.019 55.325 99.967 55.557C98.743 55.711 97.344 49.066 101.97 46.527Z" fill="#5A1404"/>
<path fill-rule="evenodd" clip-rule="evenodd" d="M107.073 38.099C113.087 39.141 110.463 37.956 115.047 41.425C109.334 40.505 112.013 41.562 107.073 38.099Z" fill="#331907"/>
<path fill-rule="evenodd" clip-rule="evenodd" d="M51.916 67.429C50.2929 66.659 48.7437 65.7418 47.288 64.689C47.0213 64.4923 46.7707 64.2997 46.536 64.111L44.811 65.751C45.7849 66.9169 46.8827 67.9735 48.085 68.902C48.8654 69.5295 49.7516 70.0124 50.702 70.328C51.278 70.467 51.412 70.265 51.412 70.265C51.707 70.134 52.329 69.908 53.084 69.585C52.884 69.223 52.707 68.901 52.555 68.623C52.143 67.862 51.916 67.429 51.916 67.429Z" fill="#F59A60"/>
<path fill-rule="evenodd" clip-rule="evenodd" d="M53.085 69.586C52.33 69.909 51.708 70.135 51.413 70.266C51.413 70.266 51.279 70.466 50.703 70.329C61.655 90.748 72.653 103.496 87.592 112.091C87.792 112.208 87.9953 112.32 88.202 112.428L88.907 107.328C88.907 107.328 75.329 99.093 67.166 90.099C60.985 83.289 55.422 73.794 53.085 69.586Z" fill="#F59A60"/>
<path fill-rule="evenodd" clip-rule="evenodd" d="M103.561 119.059C102.059 118.169 100.661 117.112 99.396 115.909C95.5683 112.121 92.2342 107.865 89.473 103.242L88.907 107.329L88.202 112.429L86.924 121.657L104.084 124.723L106.624 125.176L108.39 125.492L110.439 125.858L117.739 127.158C117.746 126.91 117.754 126.661 117.763 126.412C117.784 125.745 117.806 125.079 117.828 124.412C117.897 122.424 117.972 120.428 118.05 118.488C118.079 117.778 118.108 117.078 118.138 116.388C118.238 114.078 118.338 111.888 118.428 109.915C118.558 107.19 118.674 104.901 118.755 103.343L118.207 110.108L117.671 116.733L117.284 121.51L117.128 123.438C117.128 123.438 116.694 123.408 115.859 123.264C114.317 122.984 112.794 122.607 111.299 122.136L111.276 122.129C110.126 121.774 108.818 121.329 107.363 120.756C106.58 120.451 105.753 120.109 104.884 119.73C104.431 119.531 103.989 119.307 103.561 119.059Z" fill="#F27900"/>
<path fill-rule="evenodd" clip-rule="evenodd" d="M121.328 156.053C121.737 162.368 122.145 168.959 122.479 174.953C122.579 176.753 122.673 178.497 122.758 180.165C123.051 185.92 123.242 190.754 123.248 193.696C123.248 195.311 124.96 196.396 127.805 197.032C138.832 199.494 166.938 195.194 179.125 188.689C179.713 188.375 180.263 188.056 180.774 187.733C179.995 187.694 179.174 187.639 178.309 187.568C168.578 186.751 159.067 184.23 150.209 180.12C149.922 179.987 149.637 179.853 149.356 179.72C148.391 179.259 147.465 178.796 146.577 178.331C128.845 169.064 125.801 159.186 125.518 156.915C125.242 154.715 128.442 116.17 129.018 109.288C129.075 108.611 129.106 108.241 129.106 108.241C129.073 108.584 129.039 108.936 129.006 109.298C127.53 123.917 123.59 153.555 122.415 155.436C122.087 155.947 121.717 156.147 121.328 156.053Z" fill="#F27900"/>
<path fill-rule="evenodd" clip-rule="evenodd" d="M104.996 68.747C101.163 68.747 101.28 75.675 105.526 77.514C107.794 78.497 108.133 76.494 107.717 75.851C107.301 75.208 106.243 75.511 105.526 74.112C104.809 72.713 105.959 73.096 106.126 71.543C106.139 71.0244 106.046 70.5085 105.852 70.0275C105.657 69.5466 105.366 69.1107 104.996 68.747Z" fill="#F39157"/>
<path fill-rule="evenodd" clip-rule="evenodd" d="M155.84 55.456C159.079 53.406 162.685 59.323 160.08 63.147C158.689 65.189 157.331 63.68 157.339 62.914C157.347 62.148 158.402 61.838 158.262 60.273C158.122 58.708 157.351 59.645 156.377 58.424C156.089 57.9925 155.892 57.5063 155.8 56.9958C155.708 56.4852 155.721 55.9611 155.84 55.456Z" fill="#F39157"/>
<path fill-rule="evenodd" clip-rule="evenodd" d="M104.732 59.411C104.732 59.411 109.871 73.017 109.304 73.129C108.737 73.241 104.24 65.118 104.24 65.118L104.732 59.411Z" fill="#651906"/>
<path fill-rule="evenodd" clip-rule="evenodd" d="M152.537 47.899C152.537 47.899 153.892 62.379 154.451 62.232C155.01 62.085 155.483 52.81 155.483 52.81L152.537 47.899Z" fill="#651906"/>
<path fill-rule="evenodd" clip-rule="evenodd" d="M124.382 243.416C127.556 239.486 137.682 205.324 137.682 205.324C137.682 205.324 145.997 204.568 163.834 197.917C169.489 195.832 174.886 193.104 179.918 189.787L179.118 188.687C166.932 195.192 138.825 199.492 127.798 197.03C122.951 214.118 116.859 237.03 116.859 237.03L84.359 273.805C84.359 273.805 84.414 274.072 84.52 274.513C84.8425 275.876 85.2575 277.215 85.762 278.521C87.662 276.841 90.207 274.592 93.086 272.038C104.881 261.577 122.304 245.989 124.382 243.416Z" fill="#3D1B07"/>
<path fill-rule="evenodd" clip-rule="evenodd" d="M153.171 210.544C155.226 210.316 187.017 230.567 187.017 230.567C187.017 230.567 169.756 270.467 169.542 272.499C169.528 272.643 169.536 272.789 169.566 272.931C169.775 273.969 171.048 275.12 172.734 275.831L174.647 270.931L189.988 231.631L199.813 230.119L193.161 225.431L160.201 205.431L153.171 210.544Z" fill="#3D1B07"/>
<path fill-rule="evenodd" clip-rule="evenodd" d="M130.645 93.964C121.745 93.332 114.221 87.651 109.408 79.064C109.369 79.102 109.329 79.139 109.289 79.176C113.823 89.249 121.715 96.097 131.245 96.894C133.574 97.0813 135.919 96.9215 138.201 96.42C140.368 95.9636 142.458 95.1998 144.409 94.152C153.384 89.288 157.493 78.817 156.729 66.736C156.658 66.716 156.587 66.693 156.516 66.668C156.497 77.756 152.081 87.138 143.273 91.494C141.439 92.3934 139.499 93.0576 137.498 93.471C135.248 93.9543 132.941 94.1203 130.645 93.964Z" fill="#FAAD79"/>
<path fill-rule="evenodd" clip-rule="evenodd" d="M144.124 75.778C144.378 76.2493 144.594 76.7402 144.769 77.246C145.194 78.4139 145.384 79.6544 145.327 80.896C145.27 82.1376 144.968 83.3557 144.438 84.48C143.908 85.6042 143.161 86.6125 142.24 87.4464C141.318 88.2804 140.24 88.9236 139.069 89.339C136.672 90.1124 134.067 89.9074 131.821 88.7688C129.575 87.6302 127.869 85.6502 127.076 83.26C126.901 82.7549 126.768 82.2365 126.676 81.71L144.124 75.778Z" fill="#891207"/>
<path fill-rule="evenodd" clip-rule="evenodd" d="M128.332 81.147L128.896 82.718C129.006 83.0212 129.231 83.2687 129.522 83.4063C129.814 83.5439 130.148 83.5603 130.452 83.452L142.72 79.052C143.023 78.9424 143.271 78.7172 143.408 78.4256C143.546 78.1339 143.562 77.7997 143.454 77.496L142.978 76.168L128.332 81.147Z" fill="white"/>
<g style="mix-blend-mode:multiply">
<path fill-rule="evenodd" clip-rule="evenodd" d="M288.031 323.35C251.487 323.35 220.212 325.515 207.34 328.58C194.467 325.515 163.193 323.35 126.649 323.35C78.617 323.35 39.679 327.088 39.679 331.699C39.679 336.31 78.617 340.047 126.649 340.047C163.193 340.047 194.467 337.883 207.34 334.818C220.212 337.883 251.487 340.047 288.031 340.047C336.062 340.047 375 336.31 375 331.699C375 327.088 336.061 323.35 288.031 323.35Z" fill="#E6E6E6"/>
</g>
</svg>
