<svg width="374" height="335" viewBox="0 0 374 335" fill="none" xmlns="http://www.w3.org/2000/svg">
<path d="M119.247 64.499L115.663 65.599L113.256 60.028L107.818 60.99L105.335 57.115L103.373 58.372L106.693 63.554L111.847 62.642L114.347 68.442L119.74 66.787L119.247 64.499Z" fill="#50BFA5"/>
<path d="M349.076 264.875L345.492 265.975L343.085 260.404L337.647 261.366L335.164 257.491L333.203 258.748L336.523 263.93L341.677 263.019L344.177 268.819L349.57 267.164L349.076 264.875Z" fill="#50BFA5"/>
<path d="M97.164 330.83C97.164 330.83 78.04 266.01 76.506 251.712C74.972 237.414 85.6661 241.844 85.6661 241.844C85.6661 241.844 76.666 214.599 83.175 208.132C89.684 201.665 95.548 213.719 95.548 213.719C95.548 213.719 97.517 180.645 104.448 180.633C117.367 180.61 117.112 216.703 117.112 216.703C117.112 216.703 120.412 202.572 127.326 206.446C137.758 212.288 122.798 240.606 122.798 240.606C122.798 240.606 136.09 240.616 140.759 247.318C149.143 259.348 97.164 330.83 97.164 330.83Z" fill="#50BFA5"/>
<path d="M103.416 322.253C103.416 322.253 48.2849 313.034 36.2929 303.265C24.3009 293.496 36.17 289.091 36.17 289.091C36.17 289.091 8.47 274.891 8.795 265.239C9.12 255.587 22.875 260.493 22.875 260.493C22.875 260.493 -0.461077 233.883 5.06392 228.83C15.3539 219.417 42.332 247.079 42.332 247.079C42.332 247.079 34.322 233.924 42.758 231.842C55.481 228.703 64.8709 261.142 64.8709 261.142C64.8709 261.142 62.485 248.332 71.258 250.042C86.998 253.098 103.416 322.253 103.416 322.253Z" fill="#50BFA5"/>
<path d="M71.2571 250.037C62.4631 248.447 64.87 261.137 64.87 261.137C64.87 261.137 55.4801 228.7 42.7571 231.837C34.3211 233.919 42.331 247.074 42.331 247.074C42.331 247.074 15.353 219.412 5.06298 228.825L103.23 322.263C101.487 313.344 86.0011 252.703 71.2571 250.037Z" fill="#3C8F7C"/>
<path d="M119.101 329.857C119.101 329.857 90.0671 300.331 75.4461 297.257C60.8251 294.183 63.455 304.585 63.455 304.585C63.455 304.585 34.446 279.217 27.724 285.363C21.002 291.509 28.273 297.444 28.273 297.444C28.273 297.444 4.11004 293.163 0.651035 301.092C-4.66397 313.276 35.075 319.908 35.075 319.908C35.075 319.908 18.4221 321.062 22.2841 328.702C28.1081 340.222 119.101 329.857 119.101 329.857Z" fill="#355389"/>
<path d="M0.649952 301.091C4.10895 293.162 28.272 297.443 28.272 297.443C28.272 297.443 21 291.509 27.7229 285.362C34.4459 279.215 62.5521 301.134 62.5521 301.134C62.5521 301.134 55.9251 288.467 70.5461 291.541C85.1671 294.615 119.1 329.857 119.1 329.857L0.649952 301.091Z" fill="#466EB6"/>
<path d="M165.324 25.339C155.551 26.947 152.649 39.774 160.773 45.511C162.226 46.5546 163.255 48.0857 163.673 49.825L165.152 55.791C165.349 56.584 165.837 57.2739 166.519 57.7233C167.201 58.1727 168.028 58.3486 168.834 58.216L172.534 57.607C173.34 57.4743 174.066 57.043 174.569 56.3988C175.071 55.7547 175.312 54.945 175.244 54.131C174.73 47.971 174.095 45.737 176.097 42.989C181.956 34.952 175.099 23.73 165.324 25.339Z" fill="#F7CC7F"/>
<path d="M166.322 51.4159C165.686 46.1389 164.793 40.5669 164.489 38.9869C158.889 39.2959 161.016 33.387 163.601 35.792C164.298 36.5129 164.757 37.4307 164.915 38.4209C166.778 38.2521 168.59 37.7241 170.252 36.8659C170.06 35.8285 170.11 34.761 170.398 33.746C170.947 32.488 172.541 32.146 173.19 33.371C173.311 33.6064 173.384 33.864 173.403 34.1282C173.421 34.3923 173.387 34.6576 173.3 34.9079C172.758 35.9302 171.877 36.7318 170.808 37.175C171.103 41.375 171.508 45.5979 172.025 49.7619L171.496 49.8269C170.99 45.7269 170.586 41.572 170.296 37.443C168.646 38.2618 166.86 38.7703 165.026 38.943C165.409 40.963 166.257 46.3939 166.854 51.3489L166.322 51.4159ZM161.828 37.7419C162.175 38.0399 162.583 38.2584 163.023 38.3821C163.463 38.5058 163.926 38.5317 164.377 38.4579C164.234 37.6024 163.837 36.8095 163.238 36.1819C161.85 34.8899 160.993 36.8419 161.828 37.7419ZM170.887 33.9579C170.651 34.814 170.611 35.712 170.768 36.5859C171.634 36.2114 172.349 35.5568 172.799 34.727C172.919 34.4365 172.922 34.1105 172.806 33.8182C172.689 33.526 172.464 33.2905 172.177 33.162C172.112 33.145 171.101 33.467 170.887 33.959V33.9579Z" fill="#FAE0B2"/>
<path d="M163.629 49.6779C163.642 49.7279 163.66 49.778 163.672 49.826L165.151 55.792C165.347 56.5849 165.835 57.2748 166.517 57.7242C167.2 58.1736 168.026 58.3495 168.832 58.2169L172.532 57.6079C173.338 57.4753 174.064 57.0439 174.567 56.3997C175.069 55.7556 175.31 54.946 175.242 54.132C175.013 51.392 174.762 49.432 174.728 47.852L163.629 49.6779Z" fill="#96D9C9"/>
<path d="M158.081 20.883L155.159 15.549C155.023 15.301 154.991 15.0093 155.071 14.7379C155.15 14.4665 155.334 14.2378 155.582 14.102C155.83 13.9662 156.122 13.9345 156.393 14.0138C156.664 14.0931 156.893 14.277 157.029 14.525L159.951 19.86C160.087 20.108 160.118 20.3997 160.039 20.6711C159.96 20.9425 159.776 21.1712 159.528 21.307C159.28 21.4428 158.988 21.4745 158.717 21.3952C158.445 21.3158 158.217 21.132 158.081 20.884V20.883Z" fill="#FAE0B2"/>
<path d="M151.692 33.787L145.322 33.23C145.183 33.2177 145.047 33.1781 144.923 33.1135C144.798 33.0488 144.688 32.9604 144.598 32.8531C144.508 32.7459 144.44 32.622 144.398 32.4884C144.356 32.3549 144.341 32.2144 144.353 32.0749C144.365 31.9355 144.405 31.7998 144.47 31.6756C144.534 31.5515 144.623 31.4412 144.73 31.3512C144.837 31.2612 144.961 31.1933 145.095 31.1512C145.228 31.1091 145.369 31.0937 145.508 31.1059L151.878 31.6629C152.018 31.6751 152.153 31.7147 152.277 31.7794C152.402 31.844 152.512 31.9325 152.602 32.0398C152.692 32.147 152.76 32.2709 152.802 32.4045C152.844 32.538 152.859 32.6785 152.847 32.818C152.835 32.9574 152.795 33.0931 152.731 33.2173C152.666 33.3414 152.578 33.4517 152.47 33.5417C152.363 33.6316 152.239 33.6996 152.106 33.7417C151.972 33.7838 151.832 33.7992 151.692 33.787Z" fill="#FAE0B2"/>
<path d="M145.376 53.317C145.278 53.2175 145.2 53.0994 145.147 52.9697C145.094 52.8401 145.067 52.7012 145.068 52.5611C145.069 52.4211 145.097 52.2826 145.152 52.1535C145.206 52.0245 145.285 51.9074 145.385 51.809C146.955 50.2585 148.669 48.8606 150.503 47.634C150.619 47.5558 150.75 47.5013 150.888 47.4737C151.025 47.446 151.167 47.4458 151.304 47.473C151.442 47.5002 151.573 47.5543 151.689 47.6322C151.806 47.71 151.906 47.8101 151.984 47.9268C152.062 48.0434 152.116 48.1743 152.143 48.3119C152.171 48.4494 152.17 48.591 152.143 48.7285C152.115 48.866 152.061 48.9968 151.982 49.1132C151.904 49.2296 151.804 49.3295 151.687 49.407C149.967 50.5584 148.359 51.8706 146.887 53.326C146.787 53.4249 146.669 53.5032 146.539 53.5563C146.409 53.6094 146.27 53.6363 146.13 53.6355C145.989 53.6346 145.85 53.6061 145.721 53.5514C145.592 53.4968 145.474 53.4171 145.376 53.317Z" fill="#FAE0B2"/>
<path d="M173.819 20.595C173.547 20.522 173.315 20.3443 173.173 20.1007C173.032 19.8571 172.992 19.5675 173.064 19.295C173.787 16.5888 174.227 13.815 174.378 11.018C174.386 10.8782 174.421 10.7412 174.481 10.615C174.541 10.4887 174.626 10.3756 174.73 10.2821C174.835 10.1886 174.956 10.1165 175.088 10.07C175.22 10.0235 175.36 10.0034 175.5 10.011C175.64 10.0185 175.777 10.0535 175.903 10.114C176.029 10.1745 176.142 10.2592 176.236 10.3634C176.329 10.4676 176.401 10.5892 176.448 10.7212C176.494 10.8533 176.514 10.9932 176.507 11.133C176.348 14.0769 175.885 16.9965 175.124 19.845C175.05 20.1172 174.871 20.3491 174.626 20.4897C174.382 20.6302 174.091 20.6681 173.819 20.595Z" fill="#FAE0B2"/>
<path d="M180.379 28.784C180.297 28.5133 180.327 28.2214 180.46 27.9723C180.594 27.7233 180.821 27.5376 181.092 27.456L187.714 25.456C187.984 25.3768 188.274 25.4076 188.521 25.5415C188.769 25.6754 188.953 25.9016 189.034 26.1709C189.116 26.4401 189.087 26.7306 188.955 26.979C188.823 27.2274 188.599 27.4136 188.33 27.497L181.707 29.497C181.436 29.5785 181.144 29.5491 180.895 29.4154C180.646 29.2817 180.461 29.0546 180.379 28.784Z" fill="#FAE0B2"/>
<path d="M191.258 46.4019C191.16 46.402 191.063 46.3885 190.969 46.362C188.67 45.7153 186.446 44.8242 184.337 43.7039C184.096 43.5669 183.917 43.3412 183.84 43.0746C183.762 42.8081 183.791 42.5218 183.922 42.2766C184.052 42.0315 184.273 41.8468 184.537 41.7619C184.801 41.677 185.088 41.6986 185.337 41.822C187.312 42.8705 189.393 43.7046 191.546 44.31C191.794 44.3798 192.008 44.5369 192.149 44.7522C192.29 44.9675 192.348 45.2264 192.313 45.4814C192.278 45.7363 192.152 45.9699 191.958 46.1391C191.764 46.3083 191.515 46.4016 191.258 46.4019Z" fill="#FAE0B2"/>
<path d="M288.259 93.525L284.918 85.625L276.518 83.898C276.303 83.8536 276.104 83.7499 275.945 83.5986C275.785 83.4473 275.671 83.2544 275.615 83.0416C275.56 82.8289 275.565 82.6049 275.63 82.3949C275.695 82.1848 275.817 81.9971 275.983 81.853L282.464 76.234L281.509 67.709C281.485 67.4904 281.522 67.2693 281.616 67.0708C281.711 66.8722 281.859 66.7041 282.044 66.5854C282.23 66.4666 282.444 66.4021 282.664 66.3991C282.884 66.396 283.101 66.4545 283.289 66.568L290.635 70.996L298.448 67.454C298.648 67.3633 298.87 67.3304 299.088 67.359C299.306 67.3877 299.512 67.4767 299.682 67.6161C299.852 67.7555 299.98 67.9396 300.051 68.1478C300.121 68.3559 300.133 68.5797 300.083 68.794L298.142 77.15L303.925 83.486C304.073 83.6485 304.173 83.8493 304.213 84.0655C304.253 84.2818 304.232 84.5049 304.152 84.7097C304.072 84.9146 303.936 85.0929 303.76 85.2246C303.584 85.3563 303.374 85.4361 303.155 85.455L294.609 86.191L290.37 93.649C290.261 93.8403 290.101 93.9972 289.908 94.1023C289.715 94.2073 289.496 94.2561 289.276 94.2432C289.056 94.2303 288.845 94.1562 288.665 94.0293C288.485 93.9023 288.345 93.7277 288.259 93.525Z" fill="#F7CC7F"/>
<path d="M341.446 66.4149L340.072 71.946L330.928 70.719L327.922 78.558L320.929 78.758L321.029 82.2979L330.382 82.03L333.23 74.601L342.742 75.877L344.809 67.554L341.446 66.4149Z" fill="#F48C7F"/>
<path d="M259.982 331.554H99.2481C96.2454 331.498 93.3878 330.252 91.3034 328.09C89.2189 325.928 88.0783 323.027 88.1321 320.024V313.169C88.078 310.166 89.2185 307.265 91.303 305.103C93.3875 302.941 96.2453 301.695 99.2481 301.639H259.979C256.419 305.725 254.433 310.947 254.378 316.367C254.323 321.786 256.202 327.047 259.679 331.205L259.982 331.554Z" fill="#B75742"/>
<path d="M257.499 305.071H168.349C165.346 305.127 162.489 306.373 160.404 308.535C158.32 310.697 157.179 313.598 157.233 316.601C157.179 319.604 158.32 322.505 160.404 324.667C162.489 326.829 165.346 328.074 168.349 328.13H257.506C255.463 324.631 254.385 320.653 254.384 316.601C254.383 312.55 255.458 308.571 257.499 305.071Z" fill="#FAE0B2"/>
<path d="M203.515 280.868C203.564 280.762 203.585 280.645 203.575 280.528C203.564 280.412 203.524 280.3 203.457 280.204C203.39 280.108 203.299 280.032 203.193 279.982C203.087 279.933 202.97 279.912 202.853 279.922H117.805C111.139 279.922 105.735 284.785 105.735 290.785C105.735 296.785 111.135 301.648 117.805 301.648H202.877C202.994 301.658 203.112 301.637 203.218 301.587C203.325 301.537 203.416 301.46 203.483 301.364C203.55 301.268 203.591 301.155 203.601 301.038C203.611 300.921 203.59 300.803 203.54 300.697C201.887 297.655 201.018 294.248 201.014 290.786C201.01 287.323 201.869 283.914 203.515 280.868Z" fill="#86B1F2"/>
<path d="M202.978 281.944H160.828C153.004 281.944 146.662 286.019 146.662 291.044C146.662 296.069 153.004 300.144 160.828 300.144H203.255C201.83 297.33 201.065 294.229 201.017 291.076C200.969 287.923 201.64 284.8 202.978 281.944Z" fill="#F7CC7F"/>
<path d="M192.092 286.259H186.603C185.422 286.259 184.466 286.659 184.466 287.144V287.223H192.093L192.092 286.259Z" fill="#B75742"/>
<path d="M196.775 288.479C196.775 287.253 195.341 286.259 193.575 286.259H186.531C187.872 286.259 188.96 287.013 188.96 287.943L188.927 311.743L192.819 308.682L196.786 311.743L196.775 288.479Z" fill="#F47458"/>
<path d="M187.878 279.138H138.393C134.005 279.138 130.447 274.916 130.447 269.708C130.447 264.5 134.005 260.277 138.393 260.277H187.878C186.026 262.959 185.004 266.127 184.941 269.386C184.879 272.645 185.777 275.851 187.525 278.602L187.878 279.138Z" fill="#FAE0B2"/>
<path d="M130.451 269.708C130.451 264.5 134.093 260.277 138.584 260.277H188.82C188.941 260.267 189.054 260.21 189.132 260.118C189.211 260.025 189.25 259.905 189.241 259.784C189.248 259.664 189.208 259.546 189.129 259.456C189.051 259.365 188.94 259.31 188.82 259.3H109.127C104.17 259.3 100.151 263.959 100.151 269.708C100.151 275.456 104.17 280.116 109.127 280.116H188.82C188.94 280.107 189.051 280.051 189.13 279.96C189.209 279.87 189.249 279.752 189.242 279.632C189.251 279.511 189.212 279.391 189.133 279.298C189.054 279.206 188.941 279.149 188.82 279.139H138.584C134.093 279.138 130.451 274.916 130.451 269.708Z" fill="#466EB6"/>
<path d="M179.235 264.912H173.746C172.565 264.912 171.609 265.301 171.609 265.78V265.858H179.235V264.912Z" fill="#184655"/>
<path d="M183.919 267.087C183.919 265.887 182.485 264.91 180.719 264.91H173.674C175.015 264.91 176.103 265.65 176.103 266.561L176.07 289.901L179.962 286.901L183.929 289.901L183.919 267.087Z" fill="#3C8F7C"/>
<path d="M266.723 120.742L274.029 118.82L269.077 184.861L260.313 185.153L264.734 123.142C264.774 122.584 264.987 122.053 265.343 121.623C265.7 121.192 266.182 120.884 266.723 120.742Z" fill="#184655"/>
<path d="M269.732 186.744C269.565 186.759 269.398 186.757 269.232 186.737C268.496 186.607 267.838 186.201 267.392 185.602C266.946 185.003 266.746 184.256 266.832 183.514L271.694 121.414C271.702 121.053 271.783 120.697 271.932 120.368C272.081 120.039 272.296 119.744 272.563 119.501C272.83 119.258 273.144 119.072 273.486 118.953C273.827 118.835 274.189 118.788 274.549 118.814C275.285 118.944 275.943 119.35 276.389 119.949C276.835 120.548 277.035 121.295 276.949 122.037L272.087 184.137C272.065 184.779 271.816 185.393 271.385 185.87C270.954 186.347 270.369 186.657 269.732 186.744Z" fill="#F7CC7F"/>
<path d="M202.497 190.051C202.497 190.097 202.497 190.142 202.506 190.188C202.735 192.714 204.693 194.604 206.878 194.408L268.578 188.886C270.764 188.686 272.35 186.486 272.121 183.957C272.111 183.85 272.097 183.745 272.081 183.641L202.497 190.051Z" fill="#F7CC7F"/>
<path d="M245.459 256.752C241.419 258.992 229.07 255.064 229.07 254.709C228.893 258.084 215.242 291.116 215.242 291.116L215.253 301.279C215.253 301.279 243.38 302.62 242.975 300.134C242.57 297.648 241.058 299.265 235.447 294.571C234.947 294.154 227.071 292.326 229.203 287.663C233.498 278.272 242.614 262.615 245.459 256.752Z" fill="#F7A491"/>
<path d="M214.329 301.642L245.118 301.65C246.229 301.537 246.489 300.633 246.097 300.084C245.289 298.952 239.388 296.284 235.422 294.514C228.513 295.321 216.368 292.664 215.257 291.089C212.332 295.006 213.709 301.515 214.329 301.642Z" fill="#3C8F7C"/>
<path d="M207.575 233.035C207.159 231.786 234.084 220.36 235.289 221.665C237.421 223.974 220.721 267.321 220.721 267.321L239.907 273.183C239.907 273.183 259.854 223.103 259.021 213.944C258.188 204.785 248.196 194.376 226.546 201.037C204.896 207.698 207.575 233.035 207.575 233.035Z" fill="#355389"/>
<path d="M263.322 262.45C258.307 261.692 253.242 261.309 248.17 261.305C248.726 265.505 251.425 287.035 250.931 288.358C249.689 291.604 247.434 294.363 244.499 296.226C244.499 296.226 265.406 315.09 266.668 312.911C267.93 310.732 265.736 311.024 264.368 303.837C264.247 303.199 261.224 293.167 261.037 287.756C260.682 277.435 263.166 268.18 263.322 262.45Z" fill="#F7A491"/>
<path d="M256.614 192.01C253.697 190.454 246.125 190.399 237.8 190.939C221.568 192.016 205.54 195.162 190.105 200.3L179.772 203.722L179.806 193.128C179.806 193.128 146.936 187.628 145.792 195.775C144.07 208.043 146.207 232.949 157.159 238.508C191.176 255.775 238.847 210.999 239.019 216.858C239.251 224.725 245.884 254.002 247.579 266.82C252.295 266.902 260.398 266.898 263.912 266.091C264.596 240.983 264.917 196.437 256.614 192.01Z" fill="#466EB6"/>
<path d="M243.862 296.667L267.362 315.441C268.293 316.057 269.062 315.524 269.111 314.85C269.203 313.462 266.33 307.658 264.384 303.776C258.528 300.021 250.806 290.229 250.945 288.307C248.469 290.398 243.462 296.175 243.862 296.667Z" fill="#3C8F7C"/>
<path d="M190.666 89.614C189.876 82.397 189.045 75.154 183.066 69.864C178.224 65.583 172.066 64.858 165.983 67.148C148.737 73.637 157.623 88.948 135.634 104.395C128.801 109.195 121.27 112.477 116.126 118.939C108.926 127.983 111.644 138.861 118.206 146.124C149.606 180.876 184.663 133.943 187.18 122.677C189.049 114.295 191.174 94.259 190.666 89.614Z" fill="#13375B"/>
<path d="M184.289 130.196C182.702 127.281 180.963 124.45 179.082 121.715C176.421 116.986 169.548 114.593 169.548 114.593C169.548 114.593 167.248 114.64 164.609 114.769C164.517 115.098 164.345 115.399 164.109 115.646C163.117 116.39 157.431 115.429 153.758 117.923C141.448 128.475 144.852 179.623 145.821 195.777L183.311 196.132C183.311 196.132 178.585 161.373 186.202 152.442C191.513 146.222 188.095 137.21 184.289 130.196Z" fill="#50BFA5"/>
<path d="M167.39 97.29C167.39 97.29 165.329 112.007 163.89 115.584C162.451 119.161 171.804 126.809 179.59 129.131C187.376 131.453 177.211 121.231 177.534 117.408C177.857 113.585 179.271 95.483 179.271 95.483L167.39 97.29Z" fill="#F7A491"/>
<path d="M178.875 100.673C179.103 97.678 179.268 95.482 179.268 95.482L167.391 97.29C167.391 97.29 167.091 99.019 166.76 101.464C171.575 104.257 175.905 103.376 178.875 100.673Z" fill="#F47458"/>
<path d="M171.116 70.408C168.022 71.2708 165.337 73.2093 163.544 75.875C160.653 80.286 158.67 93.2749 168.191 99.3349C177.712 105.395 185.116 96.822 185.239 88.459C185.362 80.096 183.569 68.933 171.116 70.408Z" fill="#F7A491"/>
<path d="M187.417 85.84C186.605 87.858 184.993 89.111 183.817 88.64C182.641 88.169 182.347 86.147 183.159 84.129C183.971 82.111 185.582 80.8579 186.759 81.3289C187.936 81.7999 188.23 83.824 187.417 85.84Z" fill="#F7A491"/>
<path d="M172.52 70.1309C172.52 70.1309 166.551 83.5189 161.307 84.7139C156.063 85.9089 156.139 92.6459 156.139 92.6459C156.139 92.6459 156.256 77.09 161.171 73.522C166.086 69.954 172.52 70.1309 172.52 70.1309Z" fill="#13375B"/>
<path d="M163.391 87.499C164.081 89.673 163.449 91.814 161.98 92.28C160.511 92.746 158.76 91.363 158.069 89.188C157.378 87.013 158.011 84.873 159.48 84.407C160.949 83.941 162.7 85.325 163.391 87.499Z" fill="#F7A491"/>
<path d="M230.449 184.15C228.199 183.337 224.849 183.236 224.907 182.938C225.133 181.738 235.07 185.591 233.727 183.838C232.98 182.862 225.543 179.402 223.735 179.974C221.981 180.528 210.464 183.76 210.464 183.76L178.988 176.383C178.988 176.383 171.043 158.329 170.268 142.818C164.355 143.538 158.653 145.471 153.522 148.497C156.274 163.33 162.965 187.374 170.361 191.886C173.472 193.786 210.621 189.614 210.621 189.614C210.621 189.614 218.807 189.036 220.145 188.521C221.16 188.13 223.772 186.66 225.193 186.257C228.423 185.342 234.177 187.638 234.193 187.006C234.207 186.546 232.747 184.981 230.449 184.15Z" fill="#F7A491"/>
<path d="M170.46 126.246C170.16 121.473 168.35 116.865 163.271 115.381C161.689 114.961 160.03 114.924 158.431 115.275C156.832 115.625 155.339 116.353 154.078 117.396C151.086 119.84 150.25 123.761 150.264 127.471C150.224 136.003 150.941 144.522 152.409 152.927C158.303 149.797 164.723 147.777 171.347 146.967C171.345 146.917 170.861 132.554 170.46 126.246Z" fill="#96D9C9"/>
<path d="M72.943 135.251L24.143 126.164C23.9102 126.121 23.6881 126.033 23.4895 125.904C23.2908 125.775 23.1195 125.609 22.9853 125.414C22.8512 125.218 22.7569 124.999 22.7077 124.767C22.6586 124.536 22.6556 124.297 22.6989 124.064L28.812 91.236C28.8997 90.7664 29.1699 90.3507 29.5636 90.08C29.9572 89.8094 30.4421 89.7058 30.912 89.792L79.712 98.879C79.945 98.9224 80.1672 99.0112 80.3659 99.1405C80.5646 99.2698 80.7359 99.4369 80.87 99.6324C81.004 99.8279 81.0983 100.048 81.1474 100.28C81.1965 100.512 81.1994 100.751 81.156 100.984L75.0429 133.807C74.9552 134.277 74.685 134.692 74.2913 134.963C73.8977 135.234 73.4128 135.337 72.943 135.251Z" fill="#F7CC7F"/>
<path d="M49.7099 97.723L34.8559 94.957C34.3863 94.8693 33.9707 94.599 33.7 94.2054C33.4293 93.8117 33.3257 93.3268 33.4119 92.857L34.3419 87.857C34.3847 87.6241 34.4731 87.402 34.6019 87.2034C34.7306 87.0048 34.8973 86.8335 35.0923 86.6994C35.2874 86.5652 35.507 86.4709 35.7386 86.4217C35.9702 86.3726 36.2092 86.3696 36.442 86.413L51.296 89.179C51.7656 89.2667 52.1812 89.537 52.4518 89.9306C52.7225 90.3243 52.8261 90.8092 52.7399 91.279L51.8099 96.279C51.7222 96.7486 51.4519 97.1642 51.0583 97.4349C50.6647 97.7056 50.1798 97.8092 49.7099 97.723Z" fill="#F7CC7F"/>
<path d="M75.1609 133.996C75.0386 134.429 74.7587 134.801 74.376 135.039C73.9934 135.277 73.5357 135.363 73.0929 135.28L23.976 126.134C23.535 126.052 23.1403 125.809 22.8689 125.451C22.5976 125.094 22.4689 124.649 22.508 124.202L25.079 94.776C25.101 94.5252 25.1751 94.2817 25.2968 94.0613C25.4185 93.8408 25.5848 93.6483 25.7853 93.496C25.9858 93.3437 26.216 93.235 26.461 93.177C26.706 93.1189 26.9604 93.1128 27.2079 93.159L81.772 103.32C82.0191 103.365 82.2539 103.462 82.4615 103.603C82.669 103.744 82.8447 103.928 82.9772 104.141C83.1097 104.354 83.1961 104.593 83.2309 104.842C83.2656 105.09 83.248 105.344 83.179 105.585L75.1609 133.996Z" fill="#FAE0B2"/>
<path d="M298.979 26.475L290.623 28.756L288.823 18.63L291.558 18.144L292.825 25.276L298.247 23.795L298.979 26.475Z" fill="#50BFA5"/>
<path d="M32.7622 165.544C35.1266 165.492 37.4599 166.089 39.5082 167.272C41.0205 168.164 42.2643 169.447 43.1083 170.987L42.7202 171.255C41.5413 169.894 39.9719 168.928 38.2252 168.49C36.5801 168.081 34.862 168.064 33.2092 168.441L32.7622 165.544Z" fill="#355389"/>
<path d="M42.9092 171.121C42.9092 171.121 30.1593 173.249 31.3483 183.209C32.5373 193.169 45.9882 200.918 57.9932 194.758C74.1432 186.471 67.7642 165.403 56.2692 163.773C44.7742 162.143 42.9092 171.121 42.9092 171.121Z" fill="#F47458"/>
<path d="M48.3182 166.735C48.3182 166.735 51.6442 163.32 58.9332 166.427C66.2222 169.534 66.7493 184.027 60.2483 183.181C53.7473 182.335 43.1212 168.825 48.3182 166.735Z" fill="#F48C7F"/>
<path d="M136.03 34.411L83.5951 53.117C83.1932 53.2604 82.7669 53.3232 82.3407 53.3018C81.9145 53.2805 81.4968 53.1754 81.1112 52.9925C80.7257 52.8097 80.3799 52.5527 80.0936 52.2362C79.8074 51.9197 79.5863 51.5499 79.443 51.148L69.7641 24.014C69.4748 23.2023 69.5197 22.3089 69.8889 21.5303C70.2582 20.7517 70.9215 20.1516 71.733 19.862L124.172 1.15599C124.574 1.01261 125 0.949817 125.426 0.971175C125.853 0.992533 126.27 1.09763 126.656 1.28047C127.041 1.46331 127.387 1.7203 127.673 2.03679C127.96 2.35327 128.181 2.72305 128.324 3.12498L138.003 30.259C138.146 30.6612 138.209 31.0876 138.187 31.5139C138.165 31.9403 138.06 32.3581 137.877 32.7437C137.694 33.1293 137.436 33.475 137.119 33.761C136.802 34.0471 136.432 34.268 136.03 34.411Z" fill="#86B1F2"/>
<path d="M101.272 27.4369C101.962 29.373 102.062 31.4701 101.56 33.4631C101.059 35.4562 99.9769 37.2557 98.4523 38.634C96.9278 40.0124 95.0288 40.9077 92.9954 41.2068C90.962 41.5059 88.8855 41.1953 87.0286 40.3143C85.1717 39.4334 83.6178 38.0216 82.5633 36.2574C81.5088 34.4933 81.001 32.4561 81.1042 30.4034C81.2074 28.3508 81.9171 26.3748 83.1433 24.7254C84.3695 23.076 86.0572 21.8272 87.9931 21.137C89.2787 20.6786 90.642 20.478 92.0051 20.5465C93.3682 20.6151 94.7045 20.9515 95.9376 21.5365C97.1707 22.1215 98.2764 22.9437 99.1917 23.9561C100.107 24.9685 100.814 26.1513 101.272 27.4369Z" fill="white"/>
<path d="M92.9741 25.987C93.1775 26.5577 93.2072 27.176 93.0593 27.7636C92.9114 28.3512 92.5925 28.8819 92.143 29.2883C91.6936 29.6947 91.1337 29.9587 90.5343 30.047C89.9348 30.1353 89.3226 30.0438 88.7751 29.7842C88.2276 29.5246 87.7693 29.1084 87.4583 28.5883C87.1473 28.0683 86.9975 27.4678 87.0278 26.8626C87.0581 26.2574 87.2671 25.6747 87.6285 25.1883C87.9899 24.7019 88.4874 24.3336 89.0581 24.13C89.4371 23.9947 89.8392 23.9354 90.2412 23.9555C90.6431 23.9756 91.0372 24.0748 91.4008 24.2472C91.7645 24.4197 92.0906 24.6621 92.3606 24.9606C92.6305 25.2591 92.8389 25.6078 92.9741 25.987Z" fill="#86B1F2"/>
<path d="M91.6081 31.7741L91.9227 31.6619C93.1043 31.2404 94.4049 31.3056 95.5384 31.8431C96.6719 32.3805 97.5455 33.3462 97.967 34.5278L88.7432 37.818C88.5344 37.2331 88.4429 36.6127 88.4739 35.9924C88.5049 35.372 88.6577 34.7639 88.9238 34.2026C89.1898 33.6414 89.5638 33.1381 90.0244 32.7214C90.485 32.3047 91.0231 31.9828 91.6081 31.7741V31.7741Z" fill="#86B1F2"/>
<path d="M102.564 21.762C102.251 21.7626 101.948 21.6526 101.709 21.4514C101.47 21.2502 101.309 20.9709 101.256 20.6627C101.202 20.3545 101.26 20.0375 101.418 19.7676C101.576 19.4977 101.824 19.2924 102.119 19.188L125.043 11.011C125.374 10.8928 125.739 10.9112 126.057 11.0621C126.375 11.213 126.62 11.484 126.739 11.8155C126.857 12.147 126.838 12.5119 126.687 12.8298C126.536 13.1478 126.266 13.3928 125.934 13.511L103.01 21.688C102.867 21.7381 102.716 21.7632 102.564 21.762Z" fill="white"/>
<path d="M108.753 27.479C108.441 27.4782 108.139 27.3675 107.901 27.1663C107.663 26.9651 107.503 26.6863 107.45 26.3789C107.396 26.0715 107.453 25.7551 107.61 25.4855C107.767 25.216 108.014 25.0104 108.308 24.905L126.208 18.518C126.54 18.3998 126.904 18.4182 127.222 18.5691C127.54 18.7199 127.785 18.991 127.903 19.3225C128.022 19.654 128.003 20.0189 127.852 20.3368C127.702 20.6548 127.431 20.8998 127.099 21.018L109.199 27.405C109.056 27.455 108.905 27.48 108.753 27.479Z" fill="white"/>
<path d="M217.509 239.076H90.8879C89.953 239.076 89.0272 239.26 88.1635 239.618C87.2997 239.976 86.5148 240.5 85.8538 241.161C85.1927 241.823 84.6683 242.608 84.3105 243.471C83.9528 244.335 83.7688 245.261 83.7689 246.196V252.184C83.7689 254.072 84.5191 255.883 85.8541 257.218C87.1892 258.553 88.9999 259.303 90.8879 259.303H217.509L217.443 259.234C214.837 256.522 213.388 252.903 213.4 249.142C213.412 245.381 214.886 241.771 217.509 239.076Z" fill="#F47458"/>
<path d="M215.267 242.07H147.578C145.69 242.07 143.879 242.82 142.543 244.155C141.208 245.491 140.458 247.302 140.458 249.19C140.458 250.125 140.642 251.051 141 251.915C141.358 252.778 141.882 253.563 142.543 254.224C143.205 254.885 143.989 255.41 144.853 255.767C145.717 256.125 146.643 256.309 147.578 256.309H215.266C214.043 254.135 213.401 251.683 213.401 249.189C213.401 246.695 214.044 244.243 215.267 242.07Z" fill="#FAE0B2"/>
<path d="M321.141 239.658L311.541 215.578C311.426 215.29 311.369 214.982 311.373 214.672C311.377 214.362 311.442 214.056 311.565 213.771C311.687 213.486 311.865 213.228 312.087 213.011C312.309 212.795 312.572 212.625 312.86 212.51L347.398 198.744C347.98 198.512 348.629 198.521 349.205 198.768C349.78 199.016 350.233 199.481 350.465 200.063L360.065 224.143C360.18 224.431 360.237 224.739 360.233 225.049C360.229 225.359 360.163 225.665 360.041 225.95C359.918 226.235 359.741 226.493 359.519 226.709C359.297 226.926 359.034 227.096 358.746 227.211L324.208 240.977C323.626 241.209 322.976 241.2 322.401 240.952C321.826 240.705 321.373 240.239 321.141 239.658Z" fill="#FAE0B2"/>
<path d="M353.723 225.734L345.098 204.096C345.031 203.929 345.034 203.742 345.104 203.577C345.175 203.412 345.309 203.282 345.476 203.215C345.559 203.182 345.647 203.166 345.736 203.167C345.825 203.168 345.913 203.187 345.995 203.222C346.076 203.257 346.15 203.308 346.212 203.372C346.274 203.436 346.323 203.511 346.356 203.594L354.981 225.233C355.014 225.316 355.03 225.404 355.029 225.493C355.028 225.582 355.009 225.669 354.974 225.751C354.939 225.833 354.888 225.907 354.825 225.969C354.761 226.031 354.686 226.08 354.603 226.113C354.52 226.146 354.432 226.162 354.343 226.161C354.254 226.16 354.166 226.141 354.084 226.106C354.003 226.071 353.929 226.02 353.867 225.956C353.805 225.892 353.756 225.817 353.723 225.734Z" fill="#466EB6"/>
<path d="M349.612 222.883L342.531 205.117C342.465 204.95 342.467 204.764 342.538 204.599C342.609 204.434 342.743 204.303 342.91 204.237C343.077 204.171 343.264 204.173 343.429 204.244C343.594 204.315 343.724 204.449 343.79 204.616L350.871 222.382C350.904 222.465 350.92 222.553 350.919 222.642C350.918 222.731 350.899 222.819 350.864 222.9C350.829 222.982 350.778 223.056 350.715 223.118C350.651 223.18 350.576 223.229 350.493 223.262C350.41 223.295 350.322 223.311 350.233 223.31C350.144 223.309 350.056 223.29 349.974 223.255C349.892 223.22 349.818 223.169 349.756 223.105C349.694 223.041 349.645 222.966 349.612 222.883Z" fill="#466EB6"/>
<path d="M348.589 227.779L339.964 206.14C339.931 206.057 339.915 205.969 339.916 205.88C339.917 205.791 339.936 205.703 339.971 205.622C340.006 205.54 340.057 205.466 340.12 205.404C340.184 205.342 340.259 205.293 340.342 205.26C340.509 205.194 340.695 205.196 340.86 205.267C341.025 205.338 341.155 205.472 341.222 205.639L349.847 227.278C349.88 227.361 349.896 227.449 349.895 227.538C349.894 227.627 349.875 227.715 349.84 227.796C349.805 227.878 349.754 227.952 349.691 228.014C349.627 228.076 349.552 228.125 349.469 228.158C349.302 228.224 349.116 228.222 348.951 228.151C348.786 228.08 348.655 227.946 348.589 227.779Z" fill="#466EB6"/>
<path d="M344.056 223.865L337.399 207.165C337.332 206.998 337.335 206.812 337.406 206.647C337.477 206.482 337.61 206.352 337.777 206.285C337.944 206.219 338.13 206.221 338.295 206.292C338.46 206.363 338.59 206.496 338.657 206.663L345.314 223.363C345.38 223.53 345.378 223.716 345.307 223.881C345.235 224.046 345.102 224.176 344.935 224.243C344.768 224.309 344.582 224.306 344.417 224.235C344.253 224.165 344.123 224.031 344.056 223.865Z" fill="#466EB6"/>
<path d="M353.489 201.789L353.316 201.353C353.303 201.315 353.282 201.28 353.255 201.251C353.229 201.221 353.196 201.197 353.16 201.18C353.124 201.163 353.084 201.153 353.044 201.152C353.004 201.15 352.964 201.157 352.927 201.171L349.649 202.478C349.612 202.493 349.579 202.516 349.551 202.545C349.522 202.573 349.5 202.607 349.486 202.645C349.471 202.682 349.464 202.722 349.465 202.762C349.466 202.802 349.475 202.841 349.491 202.878L349.665 203.314C349.678 203.352 349.699 203.386 349.726 203.416C349.752 203.446 349.785 203.47 349.821 203.487C349.858 203.504 349.897 203.513 349.937 203.515C349.977 203.516 350.017 203.51 350.054 203.496L353.332 202.189C353.369 202.173 353.402 202.151 353.43 202.122C353.458 202.093 353.48 202.059 353.495 202.022C353.51 201.985 353.517 201.945 353.516 201.905C353.515 201.865 353.506 201.825 353.489 201.789Z" fill="#355389"/>
<path d="M354.233 203.652L354.059 203.216C354.046 203.178 354.025 203.143 353.998 203.114C353.972 203.084 353.939 203.06 353.903 203.043C353.867 203.026 353.828 203.016 353.788 203.015C353.748 203.013 353.708 203.02 353.67 203.034L350.392 204.341C350.355 204.356 350.322 204.379 350.294 204.408C350.266 204.437 350.244 204.47 350.229 204.508C350.215 204.545 350.208 204.585 350.209 204.625C350.21 204.665 350.219 204.704 350.235 204.741L350.409 205.177C350.422 205.215 350.443 205.249 350.47 205.279C350.497 205.308 350.529 205.332 350.565 205.349C350.601 205.366 350.64 205.375 350.68 205.377C350.72 205.378 350.76 205.372 350.797 205.358L354.075 204.052C354.112 204.036 354.146 204.014 354.174 203.985C354.202 203.957 354.224 203.923 354.239 203.885C354.253 203.848 354.26 203.808 354.259 203.768C354.258 203.728 354.25 203.688 354.233 203.652Z" fill="#355389"/>
<path d="M354.975 205.516L354.801 205.08C354.788 205.042 354.767 205.007 354.74 204.978C354.714 204.948 354.681 204.924 354.645 204.907C354.609 204.89 354.57 204.88 354.53 204.879C354.49 204.877 354.45 204.884 354.412 204.898L351.134 206.205C351.097 206.22 351.064 206.243 351.036 206.272C351.008 206.301 350.986 206.335 350.971 206.372C350.957 206.409 350.95 206.449 350.951 206.489C350.952 206.529 350.961 206.568 350.977 206.605L351.151 207.041C351.164 207.079 351.185 207.113 351.212 207.143C351.238 207.173 351.271 207.197 351.307 207.214C351.343 207.231 351.383 207.24 351.423 207.242C351.463 207.243 351.503 207.237 351.54 207.223L354.818 205.916C354.855 205.9 354.889 205.878 354.916 205.849C354.944 205.82 354.966 205.786 354.981 205.749C354.996 205.712 355.003 205.672 355.002 205.632C355.001 205.592 354.992 205.552 354.975 205.516Z" fill="#355389"/>
<path d="M355.719 207.38L355.545 206.944C355.532 206.906 355.511 206.871 355.484 206.842C355.458 206.812 355.425 206.788 355.389 206.771C355.353 206.754 355.314 206.745 355.274 206.743C355.234 206.741 355.194 206.748 355.156 206.762L351.878 208.069C351.841 208.085 351.808 208.107 351.78 208.136C351.752 208.165 351.73 208.199 351.715 208.236C351.701 208.273 351.694 208.313 351.695 208.353C351.696 208.393 351.705 208.432 351.721 208.469L351.895 208.905C351.908 208.943 351.929 208.977 351.956 209.007C351.983 209.036 352.015 209.06 352.052 209.077C352.088 209.094 352.127 209.104 352.167 209.105C352.207 209.107 352.247 209.1 352.284 209.086L355.562 207.78C355.599 207.764 355.633 207.742 355.66 207.713C355.688 207.684 355.71 207.65 355.725 207.613C355.74 207.576 355.747 207.536 355.746 207.496C355.745 207.456 355.736 207.416 355.719 207.38Z" fill="#355389"/>
<path d="M356.461 209.243L356.288 208.807C356.275 208.769 356.254 208.734 356.227 208.705C356.201 208.675 356.168 208.651 356.132 208.634C356.096 208.617 356.057 208.607 356.017 208.606C355.977 208.604 355.937 208.611 355.899 208.625L352.621 209.932C352.584 209.947 352.551 209.97 352.523 209.999C352.495 210.028 352.473 210.062 352.458 210.099C352.444 210.136 352.437 210.176 352.438 210.216C352.439 210.256 352.448 210.295 352.464 210.332L352.638 210.768C352.651 210.806 352.672 210.84 352.699 210.87C352.725 210.9 352.758 210.924 352.794 210.941C352.83 210.958 352.87 210.967 352.91 210.969C352.95 210.97 352.99 210.964 353.027 210.95L356.305 209.643C356.342 209.627 356.375 209.604 356.403 209.576C356.431 209.547 356.453 209.513 356.467 209.476C356.482 209.438 356.489 209.399 356.488 209.359C356.487 209.319 356.478 209.279 356.461 209.243Z" fill="#355389"/>
<path d="M357.203 211.107L357.029 210.672C357.016 210.634 356.995 210.599 356.969 210.57C356.942 210.54 356.909 210.516 356.873 210.499C356.837 210.482 356.797 210.472 356.757 210.471C356.717 210.469 356.678 210.476 356.64 210.49L353.362 211.797C353.325 211.812 353.292 211.835 353.264 211.864C353.236 211.893 353.214 211.927 353.199 211.964C353.185 212.001 353.177 212.041 353.178 212.081C353.18 212.121 353.189 212.16 353.205 212.197L353.379 212.632C353.392 212.67 353.413 212.704 353.44 212.734C353.467 212.764 353.499 212.788 353.535 212.805C353.571 212.822 353.611 212.831 353.651 212.833C353.691 212.834 353.731 212.828 353.768 212.814L357.046 211.508C357.083 211.492 357.117 211.47 357.145 211.441C357.173 211.412 357.195 211.378 357.21 211.341C357.224 211.303 357.231 211.263 357.23 211.223C357.229 211.183 357.22 211.143 357.203 211.107Z" fill="#355389"/>
<path d="M357.947 212.971L357.773 212.535C357.76 212.497 357.739 212.462 357.713 212.433C357.686 212.403 357.653 212.379 357.617 212.362C357.581 212.345 357.541 212.336 357.501 212.334C357.461 212.332 357.422 212.339 357.384 212.353L354.106 213.659C354.069 213.674 354.036 213.697 354.008 213.726C353.98 213.755 353.958 213.789 353.943 213.826C353.929 213.863 353.921 213.903 353.922 213.943C353.923 213.983 353.933 214.022 353.949 214.059L354.123 214.495C354.136 214.533 354.157 214.567 354.184 214.597C354.211 214.627 354.243 214.651 354.279 214.668C354.315 214.685 354.355 214.694 354.395 214.696C354.435 214.697 354.475 214.691 354.512 214.677L357.79 213.37C357.827 213.354 357.86 213.332 357.888 213.303C357.916 213.274 357.938 213.241 357.953 213.203C357.967 213.166 357.974 213.127 357.973 213.087C357.972 213.047 357.963 213.007 357.947 212.971Z" fill="#355389"/>
<path d="M358.69 214.835L358.516 214.399C358.503 214.361 358.482 214.326 358.456 214.297C358.429 214.267 358.396 214.243 358.36 214.226C358.324 214.209 358.284 214.199 358.244 214.198C358.204 214.196 358.165 214.203 358.127 214.217L354.849 215.524C354.812 215.539 354.779 215.562 354.75 215.591C354.722 215.619 354.7 215.653 354.686 215.691C354.671 215.728 354.664 215.768 354.665 215.808C354.666 215.848 354.675 215.887 354.691 215.924L354.865 216.36C354.878 216.398 354.899 216.432 354.926 216.462C354.953 216.492 354.985 216.516 355.021 216.533C355.057 216.55 355.097 216.559 355.137 216.561C355.177 216.563 355.217 216.556 355.254 216.542L358.532 215.236C358.569 215.221 358.603 215.198 358.631 215.169C358.659 215.14 358.681 215.106 358.696 215.069C358.711 215.031 358.718 214.992 358.717 214.951C358.716 214.911 358.707 214.872 358.69 214.835Z" fill="#355389"/>
<path d="M359.432 216.702L359.259 216.266C359.246 216.228 359.225 216.193 359.199 216.164C359.172 216.134 359.139 216.11 359.103 216.093C359.067 216.076 359.027 216.067 358.987 216.065C358.947 216.063 358.908 216.07 358.87 216.084L355.592 217.391C355.555 217.406 355.522 217.429 355.494 217.458C355.466 217.487 355.444 217.521 355.429 217.558C355.415 217.595 355.408 217.635 355.409 217.675C355.41 217.715 355.419 217.754 355.435 217.791L355.608 218.226C355.621 218.264 355.642 218.298 355.669 218.328C355.696 218.358 355.728 218.382 355.764 218.399C355.8 218.416 355.84 218.425 355.88 218.427C355.92 218.428 355.96 218.422 355.997 218.408L359.275 217.101C359.312 217.085 359.345 217.063 359.373 217.034C359.401 217.006 359.423 216.972 359.438 216.934C359.452 216.897 359.459 216.858 359.458 216.818C359.457 216.778 359.449 216.738 359.432 216.702Z" fill="#355389"/>
<path d="M360.176 218.562L360.002 218.126C359.989 218.088 359.968 218.053 359.942 218.024C359.915 217.994 359.882 217.97 359.846 217.953C359.81 217.936 359.77 217.926 359.73 217.925C359.69 217.923 359.651 217.93 359.613 217.944L356.335 219.251C356.298 219.266 356.265 219.289 356.236 219.318C356.208 219.346 356.186 219.38 356.172 219.418C356.157 219.455 356.15 219.495 356.151 219.535C356.152 219.575 356.161 219.614 356.177 219.651L356.351 220.087C356.364 220.125 356.385 220.159 356.412 220.189C356.439 220.219 356.471 220.242 356.507 220.259C356.544 220.276 356.583 220.286 356.623 220.287C356.663 220.289 356.703 220.282 356.74 220.268L360.018 218.962C360.055 218.947 360.089 218.924 360.117 218.895C360.145 218.867 360.167 218.833 360.182 218.795C360.196 218.758 360.203 218.718 360.203 218.678C360.202 218.638 360.193 218.599 360.176 218.562Z" fill="#355389"/>
<path d="M360.918 220.426L360.744 219.99C360.731 219.952 360.71 219.918 360.683 219.888C360.657 219.858 360.624 219.834 360.588 219.818C360.551 219.801 360.512 219.791 360.472 219.79C360.432 219.788 360.392 219.795 360.355 219.809L357.077 221.115C357.04 221.13 357.007 221.153 356.979 221.182C356.951 221.211 356.929 221.245 356.914 221.282C356.9 221.319 356.893 221.359 356.894 221.399C356.895 221.439 356.904 221.478 356.92 221.515L357.094 221.951C357.107 221.989 357.128 222.023 357.155 222.053C357.181 222.083 357.214 222.107 357.25 222.124C357.287 222.141 357.326 222.15 357.366 222.152C357.406 222.153 357.446 222.147 357.483 222.133L360.761 220.826C360.798 220.81 360.831 220.788 360.859 220.759C360.887 220.73 360.909 220.696 360.924 220.659C360.938 220.622 360.946 220.582 360.945 220.542C360.944 220.502 360.934 220.462 360.918 220.426Z" fill="#355389"/>
<path d="M361.66 222.289L361.487 221.853C361.474 221.815 361.453 221.78 361.427 221.751C361.4 221.721 361.367 221.697 361.331 221.68C361.295 221.663 361.255 221.653 361.215 221.652C361.175 221.65 361.135 221.657 361.098 221.671L357.82 222.978C357.783 222.993 357.75 223.016 357.722 223.045C357.694 223.074 357.672 223.107 357.657 223.145C357.643 223.182 357.636 223.222 357.637 223.262C357.638 223.302 357.647 223.341 357.663 223.378L357.836 223.814C357.849 223.852 357.87 223.886 357.897 223.916C357.923 223.946 357.956 223.97 357.992 223.987C358.029 224.004 358.068 224.013 358.108 224.015C358.148 224.016 358.188 224.01 358.225 223.996L361.503 222.689C361.54 222.673 361.573 222.651 361.601 222.622C361.629 222.593 361.651 222.559 361.666 222.522C361.68 222.485 361.688 222.445 361.687 222.405C361.686 222.365 361.676 222.325 361.66 222.289Z" fill="#355389"/>
<path d="M370.717 220.37L357.009 239.889C356.978 239.932 356.954 239.98 356.938 240.031L355.538 244.32C355.503 244.428 355.503 244.545 355.539 244.654C355.575 244.762 355.644 244.856 355.737 244.922C355.83 244.989 355.941 245.024 356.055 245.022C356.169 245.021 356.28 244.983 356.371 244.915L360.04 242.15C360.085 242.116 360.124 242.076 360.156 242.03L373.899 222.461C373.941 222.402 373.97 222.335 373.985 222.264C374 222.193 374 222.12 373.986 222.048C373.972 221.977 373.944 221.91 373.903 221.85C373.863 221.79 373.81 221.739 373.749 221.7L371.442 220.227C371.326 220.153 371.186 220.127 371.051 220.154C370.916 220.181 370.796 220.258 370.717 220.37Z" fill="#B75742"/>
<path d="M360.145 242.052L360.111 242.1L356.571 244.768L355.606 244.122L356.93 240.057C358.075 240.597 359.153 241.266 360.145 242.052Z" fill="#F7CC7F"/>
<path d="M231.846 9.06299C233.819 10.638 237.252 15.705 241.631 19.263C244.193 21.344 246.166 20.814 249.436 21.21C264.951 23.085 260.747 26.257 262.607 26.568C262.079 27.784 257.245 38.059 256.342 40.136C256.044 41.0109 255.436 41.7465 254.633 42.2041C253.83 42.6616 252.887 42.8096 251.982 42.62C248.774 42.176 245.536 41.847 242.382 41.162C234.282 39.406 229.782 35.356 223.976 30.438C223.255 29.9027 222.746 29.1292 222.541 28.2547C222.336 27.3802 222.447 26.4613 222.855 25.661C225.451 19.9204 228.456 14.3735 231.846 9.06299Z" fill="#466EB6"/>
<path d="M264.29 38.928C264.22 42.309 264.479 42.988 263.027 42.475C262.153 42.1545 261.303 41.7746 260.481 41.338C259.898 41.038 259.881 40.638 260.349 40.166C261.038 39.474 261.749 38.801 262.434 38.13C262.197 37.4711 262.199 36.7501 262.439 36.0923C262.679 35.4346 263.142 34.8817 263.747 34.53C264 34.382 263.815 34.696 265.976 29.723C258.831 28.841 253.789 28.25 245.076 27.178C242.787 26.9075 240.628 25.9684 238.87 24.478C232.643 19.2687 226.419 14.0573 220.196 8.84398C220.001 8.70307 219.837 8.52268 219.715 8.3145C219.594 8.10633 219.517 7.87497 219.491 7.6354C219.464 7.39582 219.488 7.15338 219.561 6.9237C219.635 6.69401 219.755 6.48221 219.915 6.30199C220.156 6.04575 220.462 5.8595 220.8 5.76302C221.139 5.66655 221.497 5.66343 221.837 5.75399C223.827 6.00299 243.337 8.42698 245.313 8.65398C247.86 8.93165 250.265 9.96574 252.219 11.623C258.336 16.745 264.46 21.858 270.593 26.962C271.433 27.662 271.661 28.307 271.366 29.088C271.298 29.2948 271.189 29.4859 271.046 29.6503C270.903 29.8146 270.728 29.9488 270.533 30.0451C270.337 30.1414 270.125 30.1979 269.907 30.2113C269.69 30.2246 269.472 30.1946 269.266 30.123C268.493 29.956 268.151 30.189 267.885 30.905C266.685 34.139 265.846 34.855 266.135 36.036C266.351 36.95 265.268 38.532 264.29 38.928Z" fill="#86B1F2"/>
<path d="M296.65 268.611L300.205 272.001C308.613 280.02 315.47 289.521 320.432 300.028L320.976 301.182C320.976 301.182 330.285 302.004 331.585 293.589C323.504 284.508 316.634 274.419 311.147 263.572L309.464 259.636L296.65 268.611Z" fill="#466EB6"/>
<path d="M309.456 259.625C309.913 260.28 307.416 262.811 303.879 265.277C300.342 267.743 297.089 269.242 296.632 268.588C296.175 267.934 298.688 265.372 302.225 262.905C305.762 260.438 308.999 258.971 309.456 259.625Z" fill="#86B1F2"/>
<path d="M309.47 259.647L309.459 259.634C309.459 259.634 302.373 265.634 299.452 266.244L300.352 267.472C301.567 266.805 302.744 266.07 303.877 265.272C307.375 262.839 309.854 260.339 309.47 259.647Z" fill="#355389"/>
<path d="M318.937 277.063C318.95 278.097 318.555 282.563 311.13 284.422C311.619 285.089 312.099 285.76 312.57 286.436C317.27 285.047 319.383 282.636 320.333 280.797C320.483 280.507 320.665 280.116 320.785 279.815C320.158 278.905 319.542 277.988 318.937 277.063Z" fill="#B75742"/>
<path d="M311.795 283.102L300.868 282.711L303.457 284.911L301.91 287.719L312.252 285.082L311.795 283.102Z" fill="#B75742"/>
<path d="M312.792 285.644L308.909 292.407L311.639 291.367L312.691 293.515L314.516 286.402L312.792 285.644Z" fill="#B75742"/>
<path d="M314.274 287.477C313.563 287.549 312.847 287.407 312.217 287.069C311.587 286.731 311.073 286.213 310.739 285.581C310.406 284.949 310.268 284.232 310.345 283.522C310.421 282.811 310.708 282.14 311.168 281.593C311.628 281.046 312.241 280.65 312.928 280.453C313.615 280.257 314.345 280.27 315.024 280.491C315.704 280.712 316.302 281.131 316.742 281.694C317.182 282.257 317.444 282.938 317.495 283.651C317.575 284.586 317.281 285.513 316.677 286.231C316.073 286.948 315.208 287.397 314.274 287.477Z" fill="#F47458"/>
<path d="M337.467 134.028L314.456 113.494C312.956 112.16 313.583 109.414 315.646 108.246L334.011 97.8459C334.515 97.5171 335.111 97.3553 335.712 97.3835C336.314 97.4117 336.891 97.6284 337.363 98.0029L360.374 118.537C361.874 119.871 361.247 122.617 359.184 123.785L340.819 134.185C340.314 134.514 339.719 134.675 339.118 134.647C338.516 134.619 337.939 134.402 337.467 134.028Z" fill="#9BC1F9"/>
<path d="M336.377 117.694L334.459 101.918C334.438 101.602 334.523 101.289 334.702 101.027C334.88 100.766 335.14 100.572 335.442 100.476C335.572 100.423 335.714 100.401 335.854 100.412C335.995 100.423 336.131 100.467 336.252 100.539C336.373 100.611 336.475 100.71 336.551 100.829C336.628 100.947 336.675 101.082 336.691 101.222L338.457 115.739L355.906 119.958C356.043 119.998 356.169 120.067 356.276 120.162C356.383 120.257 356.467 120.374 356.523 120.505C356.579 120.636 356.605 120.778 356.6 120.921C356.594 121.063 356.557 121.203 356.491 121.329C356.383 121.623 356.177 121.87 355.908 122.029C355.638 122.188 355.322 122.248 355.013 122.2L336.377 117.694Z" fill="white"/>
<path d="M35.891 45.432L38.27 50.137L43.6439 49.963L45.937 55.426L51.604 53.476L54.469 59.54L59.908 58.388L63.619 63.771L61.5819 65.171L58.807 61.146L53.067 62.362L50.312 56.533L44.5509 58.516L42.021 52.488L36.7729 52.658L34.573 48.297L31.1499 49.129L30.5649 46.729L35.891 45.432Z" fill="#F7CC7F"/>
<path d="M323.667 165.798L328.551 167.783L332.488 164.122L337.806 166.735L340.797 161.542L346.941 164.231L350.285 159.789L356.619 161.41L356.006 163.81L351.27 162.598L347.741 167.285L341.835 164.7L338.794 169.98L332.926 167.097L329.081 170.672L324.554 168.832L322.52 171.708L320.499 170.279L323.667 165.798Z" fill="#50BFA5"/>
</svg>
